<svg width="56" height="56" viewBox="0 0 56 56" fill="none" xmlns="http://www.w3.org/2000/svg">
<mask id="mask0_1110_11451" style="mask-type:alpha" maskUnits="userSpaceOnUse" x="7" y="9" width="42" height="37">
<g clip-path="url(#clip0_1110_11451)">
<path d="M37.4679 36.2212H40.0882C41.1018 36.2212 42.083 36.0141 42.9565 35.6326C43.8407 35.2511 44.6386 34.706 45.3072 34.0302C45.9757 33.3544 46.5149 32.5477 46.8923 31.6539C47.2697 30.76 47.4746 29.7789 47.4746 28.7434C47.4746 27.7078 47.2697 26.7594 46.9138 25.8765C46.5472 24.9935 46.0188 24.1978 45.3719 23.5219C44.7141 22.8461 43.9377 22.3011 43.0751 21.9196C42.2124 21.538 41.2527 21.3091 40.2499 21.2873C40.0882 19.783 39.6568 18.3659 38.9991 17.0797C38.3413 15.7934 37.4571 14.6488 36.4111 13.6895C35.3544 12.7303 34.1359 11.9563 32.788 11.4222C31.4509 10.8881 29.9844 10.5938 28.4533 10.5938C26.8142 10.5938 25.2507 10.9317 23.8273 11.5421C22.404 12.1525 21.1316 13.0246 20.0533 14.1147C18.9749 15.2047 18.1123 16.491 17.5084 17.9299C16.9046 19.3688 16.5811 20.9385 16.5811 22.5954C16.5811 22.7916 16.5811 22.9987 16.5919 23.1949C16.5919 23.3911 16.6135 23.5874 16.635 23.7836C16.6566 23.9798 16.6782 24.176 16.7105 24.3613C16.7429 24.5575 16.7752 24.7428 16.8075 24.939H14.1549C13.3893 24.939 12.6561 25.0916 11.9875 25.386C11.319 25.6694 10.7151 26.0836 10.2191 26.5959C9.7123 27.1083 9.30254 27.7078 9.02218 28.3836C8.74182 29.0595 8.58008 29.8007 8.58008 30.5747C8.58008 31.3486 8.74182 32.0899 9.02218 32.7657C9.30254 33.4416 9.7123 34.052 10.2191 34.5534C10.7259 35.0658 11.319 35.48 11.9875 35.7634C12.6561 36.0468 13.3893 36.2103 14.1549 36.2103H18.3172" stroke="#2B2B2B" stroke-width="2" stroke-linecap="round" stroke-linejoin="round"/>
<path d="M25.3359 31.5332V38.804" stroke="#FF3E3E" stroke-width="2" stroke-linecap="round" stroke-linejoin="round"/>
<path d="M31.084 37.3535V44.6134" stroke="#FF3E3E" stroke-width="2" stroke-linecap="round" stroke-linejoin="round"/>
</g>
</mask>
<g mask="url(#mask0_1110_11451)">
<rect x="3" y="3" width="48" height="48" fill="url(#paint0_linear_1110_11451)"/>
</g>
<defs>
<linearGradient id="paint0_linear_1110_11451" x1="3" y1="3" x2="51" y2="51" gradientUnits="userSpaceOnUse">
<stop stop-color="#FF6900"/>
<stop offset="1" stop-color="#FFC7A0"/>
</linearGradient>
<clipPath id="clip0_1110_11451">
<rect width="42" height="37" fill="white" transform="translate(7 9)"/>
</clipPath>
</defs>
</svg>
