<svg width="40" height="40" viewBox="0 0 40 40" fill="none" xmlns="http://www.w3.org/2000/svg">
<rect width="40" height="40" rx="2" fill="black" fill-opacity="0.1"/>
<mask id="mask0_1110_6979" style="mask-type:alpha" maskUnits="userSpaceOnUse" x="1" y="1" width="38" height="38">
<g clip-path="url(#clip0_1110_6979)">
<path d="M24.3513 24.3518C29.3673 19.3358 29.3673 11.2038 24.3513 6.18778C19.3353 1.17178 11.2033 1.17178 6.18728 6.18778C1.17128 11.2038 1.17128 19.3358 6.18728 24.3518C11.2033 29.3678 19.3353 29.3678 24.3513 24.3518Z" stroke="#2B2B2B" stroke-width="2" stroke-linecap="round" stroke-linejoin="round"/>
<path d="M24.3513 24.3518C29.3673 19.3358 29.3673 11.2038 24.3513 6.18778C19.3353 1.17178 11.2033 1.17178 6.18728 6.18778C1.17128 11.2038 1.17128 19.3358 6.18728 24.3518C11.2033 29.3678 19.3353 29.3678 24.3513 24.3518Z" stroke="#2B2B2B" stroke-width="2" stroke-linecap="round" stroke-linejoin="round"/>
<path d="M15.2695 8.34375C13.5025 8.34375 11.726 9.01825 10.377 10.3672C9.02803 11.7162 8.35353 13.4928 8.35353 15.2598" stroke="#FF3E3E" stroke-width="2" stroke-linecap="round" stroke-linejoin="round"/>
<path d="M25.1108 25.1113L37.5273 37.5278" stroke="#2B2B2B" stroke-width="2" stroke-linecap="round" stroke-linejoin="round"/>
</g>
</mask>
<g mask="url(#mask0_1110_6979)">
<rect x="-4" y="-4" width="48" height="48" fill="url(#paint0_linear_1110_6979)"/>
</g>
<defs>
<linearGradient id="paint0_linear_1110_6979" x1="20" y1="-4" x2="20" y2="44" gradientUnits="userSpaceOnUse">
<stop stop-color="#FF710D"/>
<stop offset="1" stop-color="white"/>
</linearGradient>
<clipPath id="clip0_1110_6979">
<rect width="38" height="38" fill="white" transform="matrix(-1 0 0 1 39 1)"/>
</clipPath>
</defs>
</svg>
