<svg width="32" height="32" viewBox="0 0 32 32" fill="none" xmlns="http://www.w3.org/2000/svg">
<g clip-path="url(#clip0_1168_5655)">
<path d="M27.082 11H26.5198H23.6007H23.0385H20.1203H19.5581H16.639L16.2185 11.9355H19.1376L19.1385 11.9328H19.7007L15.9235 20.3333H18.8417L22.6198 11.9328H23.1811L19.4038 20.3333H22.3229L26.1002 11.9328H26.6624L22.8851 20.3333H25.8033L30.0002 11H27.082Z" fill="black"/>
<path d="M10.2746 19.4014H8.81908L12.5963 11H9.67722H9.11505H9.11595H6.19684L2 20.3333H4.91911L8.69636 11.9328H9.25852L5.48037 20.3333H7.80213H8.39948H8.96165H10.2746H11.8808L12.2976 19.405H10.2746V19.4014Z" fill="black"/>
<path d="M13.5584 16.603L16.0778 11H13.1587L10.6393 16.603H13.5584Z" fill="black"/>
<path d="M14.9588 14.7383L12.4421 20.3333H15.3612L17.877 14.7383H14.9588Z" fill="black"/>
</g>
<defs>
<clipPath id="clip0_1168_5655">
<rect width="28" height="9.33333" fill="white" transform="translate(2 11)"/>
</clipPath>
</defs>
</svg>
