<svg xmlns="http://www.w3.org/2000/svg" width="24" height="24" viewBox="0 0 24 24" fill="none">
<path d="M11.3588 19.8868C11.1413 19.8114 10.95 19.6907 10.785 19.5248L9.2325 18.099C7.6425 16.6355 6.20625 15.1834 4.92375 13.7426C3.64125 12.3017 3 10.7138 3 8.97878C3 7.56058 3.4725 6.37624 4.4175 5.42574C5.3625 4.47525 6.54 4 7.95 4C8.745 4 9.495 4.16973 10.2 4.50919C10.905 4.84866 11.505 5.31259 12 5.90099C12.495 5.31259 13.095 4.84866 13.8 4.50919C14.505 4.16973 15.255 4 16.05 4C17.46 4 18.6375 4.47525 19.5825 5.42574C20.5275 6.37624 21 7.56058 21 8.97878C21 10.7138 20.3625 12.3055 19.0875 13.7539C17.8125 15.2023 16.365 16.6582 14.745 18.1216L13.215 19.5248C13.05 19.6907 12.8588 19.8114 12.6413 19.8868C12.4237 19.9623 12.21 20 12 20C11.79 20 11.5763 19.9623 11.3588 19.8868ZM11.145 7.71146C10.71 7.09288 10.245 6.62141 9.75 6.29703C9.255 5.97265 8.655 5.81047 7.95 5.81047C7.05 5.81047 6.3 6.11221 5.7 6.7157C5.1 7.31919 4.8 8.07355 4.8 8.97878C4.8 9.76332 5.0775 10.5969 5.6325 11.4795C6.1875 12.3621 6.85125 13.2183 7.62375 14.0481C8.39625 14.8779 9.19125 15.6549 10.0088 16.3791C10.8263 17.1033 11.49 17.6992 12 18.1669C12.51 17.6992 13.1738 17.1033 13.9913 16.3791C14.8088 15.6549 15.6038 14.8779 16.3763 14.0481C17.1488 13.2183 17.8125 12.3621 18.3675 11.4795C18.9225 10.5969 19.2 9.76332 19.2 8.97878C19.2 8.07355 18.9 7.31919 18.3 6.7157C17.7 6.11221 16.95 5.81047 16.05 5.81047C15.345 5.81047 14.745 5.97265 14.25 6.29703C13.755 6.62141 13.29 7.09288 12.855 7.71146C12.75 7.86233 12.6225 7.97548 12.4725 8.05092C12.3225 8.12636 12.165 8.16407 12 8.16407C11.835 8.16407 11.6775 8.12636 11.5275 8.05092C11.3775 7.97548 11.25 7.86233 11.145 7.71146Z" fill="#1E2124"/>
</svg>