<svg width="56" height="56" viewBox="0 0 56 56" fill="none" xmlns="http://www.w3.org/2000/svg">
<mask id="mask0_1090_5374" style="mask-type:alpha" maskUnits="userSpaceOnUse" x="11" y="10" width="34" height="36">
<path d="M33 28C33 30.7626 30.7626 33 28 33C25.2374 33 23 30.7626 23 28C23 25.2374 25.2374 23 28 23C30.7626 23 33 25.2374 33 28Z" stroke="#FF3F63" stroke-width="2" stroke-linecap="round" stroke-linejoin="round"/>
<path d="M41.3205 31.5659L39.5398 30.582C39.7357 29.7525 39.855 28.8905 39.855 28.0041C39.855 27.1177 39.7443 26.2557 39.5398 25.4262L41.3205 24.4422C42.9309 23.5558 43.4761 21.5959 42.5474 20.059L42.4793 19.937C41.5506 18.4081 39.4972 17.8795 37.8868 18.7659L36.1828 19.7011C34.8536 18.4651 33.2348 17.5136 31.4285 16.9525V15.2041C31.4285 13.4313 29.9204 12 28.0715 12H27.9266C26.0692 12 24.5697 13.4313 24.5697 15.2041V16.7898C22.6185 17.2859 20.8633 18.2211 19.4319 19.4897L18.1113 18.7659C16.501 17.8795 14.4476 18.4081 13.5189 19.937L13.4507 20.059C12.522 21.5959 13.0758 23.5558 14.6776 24.4422L15.9216 25.1253C15.6745 26.0442 15.5296 27.0038 15.5296 28.0041C15.5296 29.0043 15.6745 29.9639 15.9216 30.8828L14.6776 31.5659C13.0758 32.4524 12.522 34.4122 13.4507 35.941L13.5189 36.063C14.4476 37.5919 16.501 38.1205 18.1113 37.2341L19.4319 36.5022C20.8719 37.7708 22.627 38.7141 24.5697 39.2102V40.7959C24.5697 42.5687 26.0692 44 27.9266 44H28.0715C29.9289 44 31.4285 42.5687 31.4285 40.7959V39.0475C33.2348 38.4864 34.8621 37.5431 36.1828 36.2989L37.8868 37.2341C39.4972 38.1205 41.5506 37.5919 42.4793 36.063L42.5474 35.941C43.4761 34.4122 42.9223 32.4524 41.3205 31.5659Z" stroke="#FF3F63" stroke-width="2" stroke-linecap="round" stroke-linejoin="round"/>
</mask>
<g mask="url(#mask0_1090_5374)">
<rect x="4" y="4" width="48" height="48" fill="url(#paint0_linear_1090_5374)"/>
</g>
<defs>
<linearGradient id="paint0_linear_1090_5374" x1="4" y1="4" x2="52" y2="52" gradientUnits="userSpaceOnUse">
<stop stop-color="#FF6900"/>
<stop offset="1" stop-color="#FFC7A0"/>
</linearGradient>
</defs>
</svg>
