<svg width="56" height="56" viewBox="0 0 56 56" fill="none" xmlns="http://www.w3.org/2000/svg">
<mask id="mask0_1090_8693" style="mask-type:alpha" maskUnits="userSpaceOnUse" x="8" y="8" width="40" height="40">
<path d="M27.9424 35.8819C38.1117 35.8819 46.3555 32.3533 46.3555 28.0005C46.3555 23.6478 38.1117 20.1191 27.9424 20.1191C17.7731 20.1191 9.5293 23.6478 9.5293 28.0005C9.5293 32.3533 17.7731 35.8819 27.9424 35.8819Z" stroke="black" stroke-width="2" stroke-linecap="round" stroke-linejoin="round"/>
<path d="M37.1488 44.0575C40.892 41.8811 39.8046 32.9271 34.7199 24.0581C29.6353 15.1892 22.4789 9.76379 18.7357 11.9402C14.9925 14.1166 16.0799 23.0706 21.1646 31.9395C26.2492 40.8085 33.4056 46.2339 37.1488 44.0575Z" stroke="black" stroke-width="2" stroke-linecap="round" stroke-linejoin="round"/>
<path d="M34.7199 31.9399C39.8046 23.0709 40.892 14.1169 37.1488 11.9406C33.4056 9.76417 26.2492 15.1896 21.1646 24.0585C16.0799 32.9275 14.9925 41.8815 18.7357 44.0579C22.4789 46.2343 29.6353 40.8089 34.7199 31.9399Z" stroke="black" stroke-width="2" stroke-linecap="round" stroke-linejoin="round"/>
<path d="M29.0799 30.3299L26.2322 24.1602L23.3857 30.3299" stroke="black" stroke-linecap="round" stroke-linejoin="round"/>
<path d="M28.1977 28.4277H24.2666" stroke="black" stroke-linecap="round" stroke-linejoin="round"/>
<path d="M31.1172 24.1602V30.3299" stroke="black" stroke-linecap="round" stroke-linejoin="round"/>
</mask>
<g mask="url(#mask0_1090_8693)">
<rect x="4" y="4" width="48" height="48" fill="url(#paint0_linear_1090_8693)"/>
</g>
<defs>
<linearGradient id="paint0_linear_1090_8693" x1="4" y1="4" x2="52" y2="52" gradientUnits="userSpaceOnUse">
<stop stop-color="#FF6900"/>
<stop offset="1" stop-color="#FFC7A0"/>
</linearGradient>
</defs>
</svg>
