<svg width="56" height="56" viewBox="0 0 56 56" fill="none" xmlns="http://www.w3.org/2000/svg">
<mask id="mask0_1090_6295" style="mask-type:alpha" maskUnits="userSpaceOnUse" x="9" y="9" width="38" height="38">
<path d="M36.6882 19.9961V36.0772H33.3564V19.9961H36.6882Z" fill="black"/>
<path d="M28.0981 24.816C27.9649 23.5499 26.9431 22.7947 25.3217 22.7947C23.6336 22.7947 22.7007 23.5722 22.6785 24.6383C22.6563 25.7933 23.878 26.3264 25.2551 26.6373L26.6988 26.9927C29.4531 27.6147 31.5187 29.014 31.5187 31.7016C31.5187 34.6557 29.2087 36.5215 25.2995 36.5215C21.4125 36.5215 18.9248 34.7223 18.8359 31.2796H22.0788C22.1899 32.901 23.4781 33.7228 25.2551 33.7228C27.0098 33.7228 28.1426 32.901 28.1426 31.7016C28.1426 30.6132 27.1431 30.1023 25.3883 29.6581L23.6336 29.2361C20.9238 28.5697 19.258 27.2148 19.258 24.8604C19.258 21.9285 21.8345 19.9961 25.3439 19.9961C28.8978 19.9961 31.2522 21.9729 31.2966 24.816H28.0981Z" fill="black"/>
<circle cx="28" cy="28" r="18" stroke="black" stroke-width="2"/>
</mask>
<g mask="url(#mask0_1090_6295)">
<rect x="4" y="4" width="48" height="48" fill="url(#paint0_linear_1090_6295)"/>
</g>
<defs>
<linearGradient id="paint0_linear_1090_6295" x1="4" y1="4" x2="52" y2="52" gradientUnits="userSpaceOnUse">
<stop stop-color="#FF6900"/>
<stop offset="1" stop-color="#FFC7A0"/>
</linearGradient>
</defs>
</svg>
