<svg width="32" height="32" viewBox="0 0 32 32" fill="none" xmlns="http://www.w3.org/2000/svg">
<g clip-path="url(#clip0_1168_5667)">
<path d="M23.4337 21.6277C23.4337 21.6277 24.8282 17.3678 21.3383 16.2441C19.5456 19.4838 23.4337 21.6277 23.4337 21.6277Z" fill="#9FC519"/>
<path d="M23.4167 5.60938C23.4167 5.60938 19.1993 7.37087 20.683 10.8906C24.3821 10.1311 23.4167 5.60938 23.4167 5.60938Z" fill="#9FC519"/>
<path d="M9.04289 6.64258C9.04289 6.64258 8.6223 11.0565 12.2269 11.3614C13.2518 7.8417 9.04289 6.64258 9.04289 6.64258Z" fill="#9FC519"/>
<path d="M14.4476 6.4668C14.4476 6.4668 13.6564 8.42651 15.2633 9.06756C16.2085 7.60232 14.4476 6.4668 14.4476 6.4668Z" fill="#9FC519"/>
<path d="M13.6958 15.6369C13.6958 15.6369 13.4409 14.58 13.5492 13.5716C13.6565 12.5643 12.1696 12.1172 12.1696 13.5576C12.1696 13.5576 11.8117 13.1159 11.2297 13.4563C10.7709 13.7257 10.9281 14.7416 11.6662 15.0519C12.4033 15.3632 13.6576 15.6143 13.6969 15.6369H13.6958Z" fill="#9FC519"/>
<path d="M18.3667 14.7602C19.0368 14.8668 19.6645 14.4014 19.7697 13.7216C19.8748 13.0418 19.416 12.4051 18.7459 12.2984C18.0757 12.1918 17.448 12.6572 17.3429 13.3359C17.2377 14.0157 17.6965 14.6525 18.3667 14.7591V14.7602Z" fill="#312783"/>
<path d="M17.5521 4C17.5521 4 14.7568 6.61476 16.9202 8.93324C19.5955 7.25364 17.5521 4 17.5521 4Z" fill="#312783"/>
<path d="M12.2205 11.3452C10.978 7.57661 6.50989 9.16036 6.50989 9.16036C6.50989 9.16036 8.83472 13.3427 12.2216 11.3452H12.2205Z" fill="#312783"/>
<path d="M26.3447 8.31144C26.3447 8.31144 21.7067 6.99921 20.6882 10.9068C24.2535 12.7114 26.3447 8.31144 26.3447 8.31144Z" fill="#312783"/>
<path d="M21.3235 16.2379C21.1398 20.821 26.6019 20.9707 26.6019 20.9707C26.6019 20.9707 25.7841 15.4913 21.3235 16.2379Z" fill="#312783"/>
<path d="M23.4284 12.8459C21.3351 13.0226 18.5759 15.8884 18.0979 16.3517C17.6189 16.816 17.5775 17.1026 17.1602 16.9733C16.7417 16.844 16.883 15.9056 16.883 15.9056C16.9201 12.0045 15.0594 10.0577 15.1486 10.2947C15.2378 10.5307 15.6276 11.8623 15.7582 13.2499C15.8889 14.6365 15.3631 17.443 15.2177 18.1832C15.1454 18.5527 14.9797 19.3263 14.8066 20.4984C14.8289 20.5501 14.8502 20.6019 14.8714 20.6493C14.9659 20.868 15.0467 21.0468 15.0934 21.1459C15.2591 21.5025 17.0794 24.1862 16.4464 27.6468H18.8254C18.8244 25.8874 16.9732 21.0296 18.5822 17.8858C19.914 15.2851 23.4294 12.8459 23.4294 12.8459H23.4284Z" fill="#312783"/>
<path d="M27.2179 14.5786C27.2179 14.5786 24.2718 12.3905 22.5194 14.8868C24.5745 17.1341 27.2179 14.5786 27.2179 14.5786Z" fill="#24A2DD"/>
<path d="M5.5 18.6122C5.5 18.6122 9.61651 19.7509 10.5012 16.2829C7.33098 14.7013 5.5 18.6122 5.5 18.6122Z" fill="#24A2DD"/>
<path d="M6.72339 14.3849C6.72339 14.3849 8.11999 16.2627 9.63552 15.069C8.7912 13.3215 6.72339 14.3849 6.72339 14.3849Z" fill="#24A2DD"/>
<path d="M13.543 27.6463H16.4455C17.0786 24.1858 15.2582 21.501 15.0925 21.1454C15.0468 21.0463 14.965 20.8675 14.8705 20.6488C14.6252 20.081 14.2854 19.2321 14.2089 18.7127C14.1037 17.9931 14.1367 17.268 14.1526 17.1366C14.1685 17.0051 13.4655 18.229 13.9657 20.2028C13.9657 20.2028 14.0931 20.5658 13.8966 20.6854C13.7002 20.8039 13.5398 20.6639 13.4049 20.5831C13.1065 20.4053 11.3519 19.3053 10.2687 19.4831C10.2687 19.4831 12.4724 20.4473 13.3539 21.6895C14.2354 22.9317 14.1876 26.5452 13.5419 27.6473L13.543 27.6463Z" fill="#24A2DD"/>
<path d="M13.0586 19.6318C13.3857 19.4928 13.5386 19.1115 13.4027 18.7807C13.2657 18.4489 12.8887 18.2926 12.5626 18.4316C12.2355 18.5706 12.0815 18.952 12.2185 19.2827C12.3555 19.6135 12.7315 19.7697 13.0586 19.6307V19.6318Z" fill="#24A2DD"/>
</g>
<defs>
<clipPath id="clip0_1168_5667">
<rect width="22" height="24" fill="white" transform="translate(5.5 4)"/>
</clipPath>
</defs>
</svg>
