<svg width="32" height="32" viewBox="0 0 32 32" fill="none" xmlns="http://www.w3.org/2000/svg">
<path d="M15.4514 28.6049C15.4095 28.5516 15.3574 28.5071 15.2981 28.4741C15.2358 28.4396 15.1667 28.4193 15.0956 28.4147C15.0231 28.4073 14.9499 28.4158 14.881 28.4396C14.8191 28.4616 14.7625 28.4964 14.7149 28.5417C14.6675 28.5876 14.6296 28.6422 14.6031 28.7026C14.575 28.7667 14.558 28.8351 14.5527 28.9049V28.9119C14.5471 28.9822 14.554 29.0528 14.5731 29.1207C14.5916 29.1857 14.6229 29.2465 14.6651 29.2994C14.7066 29.3524 14.758 29.3969 14.8165 29.4302C14.8793 29.4652 14.9491 29.4857 15.0209 29.4902C15.0932 29.4973 15.1662 29.4888 15.2349 29.4653C15.2968 29.4435 15.3533 29.409 15.401 29.3638C15.4485 29.3177 15.4866 29.2629 15.5134 29.2024C15.5415 29.1382 15.5586 29.0698 15.5638 29V28.993C15.5697 28.923 15.5628 28.8525 15.5434 28.7849C15.5246 28.7201 15.4936 28.6594 15.4521 28.6062" fill="#4C4C4E"/>
<path d="M4.83683 23.1339C4.87516 23.1898 4.93353 23.2289 4.99986 23.243C5.0662 23.2572 5.13544 23.2453 5.19327 23.2099L4.94159 22.7969C4.91142 22.8109 4.88452 22.831 4.86262 22.8561C4.84072 22.8811 4.8243 22.9104 4.81443 22.9422C4.80457 22.9739 4.80146 23.0074 4.80532 23.0404C4.80918 23.0734 4.81991 23.1053 4.83683 23.1339Z" fill="#4C4C4E"/>
<path d="M10.0765 5.23341C10.2138 5.15618 10.2253 4.96724 10.1116 4.76107C10.0171 4.58937 9.8561 4.45213 9.69449 4.54213C9.52394 4.63851 9.55843 4.84915 9.65233 5.01894C9.76156 5.21618 9.92444 5.31894 10.0765 5.23341Z" fill="#4C4C4E"/>
<path d="M6.48431 7.43424C6.46232 7.40947 6.43532 7.38964 6.40509 7.37607C6.37487 7.36249 6.34211 7.35547 6.30897 7.35547C6.27583 7.35547 6.24307 7.36249 6.21285 7.37607C6.18262 7.38964 6.15562 7.40947 6.13363 7.43424C6.09214 7.4884 6.07276 7.55627 6.0794 7.62415C6.08604 7.69203 6.1182 7.75487 6.1694 7.79998L6.48431 7.43424Z" fill="#4C4C4E"/>
<path d="M3.20461 17.3058L3.17203 16.8226C3.13897 16.8208 3.10591 16.8261 3.075 16.8379C3.04409 16.8498 3.01603 16.868 2.99265 16.8915C2.96927 16.9149 2.95109 16.943 2.93929 16.9739C2.9275 17.0048 2.92235 17.0379 2.92419 17.0709C2.93207 17.1384 2.96551 17.2004 3.01765 17.2441C3.0698 17.2878 3.13669 17.3098 3.20461 17.3058Z" fill="#4C4C4E"/>
<path d="M3.54985 15.8587C3.57104 15.8609 3.59244 15.8584 3.61257 15.8515C3.6327 15.8445 3.65107 15.8333 3.6664 15.8185C3.68173 15.8037 3.69365 15.7858 3.70132 15.7659C3.70899 15.7461 3.71224 15.7248 3.71082 15.7036C3.71307 15.6571 3.70073 15.6111 3.67554 15.5719C3.65035 15.5328 3.61355 15.5025 3.57029 15.4853L3.50195 15.4712L3.36014 15.4648C3.34864 15.68 3.39208 15.8478 3.55177 15.8555" fill="#4C4C4E"/>
<path d="M4.42353 10.885C4.62602 10.9814 4.81829 10.9692 4.89239 10.8116C4.9601 10.6686 4.86173 10.5077 4.64966 10.4063C4.47399 10.322 4.26639 10.3048 4.18399 10.4701C4.10095 10.6475 4.24787 10.8001 4.42417 10.8831" fill="#4C4C4E"/>
<path d="M3.68057 19.2957C3.49214 19.3468 3.32159 19.4713 3.36949 19.6506C3.41996 19.8421 3.63203 19.8581 3.81663 19.8076C4.03317 19.7489 4.17115 19.6162 4.1258 19.4444C4.08491 19.2913 3.90606 19.2344 3.67866 19.2957" fill="#4C4C4E"/>
<path d="M19.7646 28.3389L20.4034 28.1213L19.8202 27.4453L19.7646 28.3389Z" fill="#4C4C4E"/>
<path d="M27.1412 8.83405C27.1009 8.77953 27.0412 8.74253 26.9744 8.73066C26.9077 8.71879 26.8389 8.73294 26.7822 8.77022L27.0473 9.17426C27.077 9.15929 27.1033 9.13828 27.1244 9.11256C27.1454 9.08685 27.1609 9.05701 27.1698 9.02496C27.1786 8.99291 27.1806 8.95936 27.1757 8.92648C27.1708 8.8936 27.159 8.86211 27.1412 8.83405Z" fill="#4C4C4E"/>
<path d="M24.3414 5.64637C24.3817 5.54169 24.4385 5.41594 24.4832 5.31445H24.4794C24.3925 5.38275 24.2878 5.47403 24.2002 5.5385L23.8809 5.77531L24.1939 6.02233L24.3414 5.64637Z" fill="#4C4C4E"/>
<path d="M15.9599 1.00002C12.9932 1.01011 10.0961 1.89842 7.63423 3.55277C5.17241 5.20712 3.25636 7.55331 2.12804 10.2951C0.999722 13.0369 0.709735 16.0512 1.2947 18.9576C1.87966 21.8639 3.31334 24.5319 5.41469 26.6246C7.51604 28.7173 10.1908 30.1408 13.1013 30.7155C16.0117 31.2901 19.0273 30.9901 21.7673 29.8533C24.5072 28.7165 26.8486 26.7939 28.4958 24.3283C30.143 21.8627 31.0221 18.9646 31.0221 16.0001C31.0188 14.0268 30.6266 12.0736 29.8679 10.2519C29.1092 8.43012 27.9988 6.77556 26.6001 5.38266C25.2014 3.98976 23.5419 2.8858 21.7163 2.13383C19.8906 1.38185 17.9346 0.996583 15.9599 1.00002ZM30.0908 14.8001L28.207 15.0113L28.1617 14.6047L30.0461 14.3928L30.0908 14.8001ZM29.4105 14.1764L29.102 14.17C29.1179 14.0932 29.1179 14.0139 29.102 13.9371C29.0951 13.8895 29.0782 13.844 29.0523 13.8035C29.0265 13.763 28.9923 13.7285 28.952 13.7022C28.9118 13.6759 28.8664 13.6585 28.8189 13.6512C28.7714 13.6438 28.7229 13.6466 28.6765 13.6594C28.6282 13.6651 28.5816 13.681 28.5399 13.7062C28.4982 13.7313 28.4624 13.765 28.4348 13.805C28.4071 13.8451 28.3884 13.8905 28.3797 13.9384C28.3711 13.9863 28.3728 14.0354 28.3846 14.0826C28.3979 14.1614 28.4259 14.2369 28.467 14.3054L28.1828 14.4094C28.1186 14.3023 28.0752 14.1841 28.055 14.0609C28.0293 13.9728 28.0229 13.8801 28.0362 13.7893C28.0496 13.6985 28.0824 13.6116 28.1324 13.5346C28.1824 13.4575 28.2485 13.3922 28.3261 13.3431C28.4037 13.2939 28.491 13.262 28.582 13.2496C28.6768 13.2294 28.7747 13.2296 28.8694 13.2503C28.9641 13.2709 29.0533 13.3114 29.131 13.3691C29.2088 13.4268 29.2734 13.5005 29.3205 13.5851C29.3676 13.6697 29.3961 13.7634 29.4041 13.8598C29.4244 13.965 29.4273 14.0729 29.4124 14.179M28.1234 19.7194C28.1872 19.7379 28.2294 19.7079 28.3195 19.5739C28.4804 19.3371 28.6503 19.2771 28.7979 19.3224C28.8582 19.3448 28.9132 19.3792 28.9596 19.4237C29.006 19.4681 29.0428 19.5216 29.0677 19.5808C29.0927 19.6401 29.1051 19.7038 29.1044 19.768C29.1037 19.8322 29.0898 19.8957 29.0636 19.9543C29.0313 20.0778 28.9725 20.1928 28.8912 20.2913L28.6414 20.1439C28.7099 20.0712 28.7608 19.9839 28.7902 19.8886C28.8171 19.7922 28.7941 19.7271 28.7264 19.7092C28.6587 19.6913 28.6229 19.7322 28.5252 19.8726C28.3763 20.0896 28.2262 20.1567 28.041 20.1062C27.8072 20.0424 27.6877 19.8043 27.7899 19.4418C27.8264 19.3 27.8958 19.1688 27.9924 19.0588L28.2524 19.2088C28.1652 19.2966 28.0996 19.4035 28.0608 19.5209C28.0276 19.6403 28.0544 19.7009 28.1189 19.7194M29.077 12.4607C29.1144 12.5832 29.1249 12.7123 29.1077 12.8392L28.8183 12.8481C28.8386 12.7504 28.8362 12.6493 28.8113 12.5526C28.7839 12.4569 28.7289 12.4141 28.665 12.4332C28.6012 12.4524 28.5903 12.5092 28.5801 12.6796C28.5667 12.9439 28.4753 13.0798 28.2907 13.1366C28.0576 13.2049 27.8321 13.0683 27.728 12.7064C27.6843 12.566 27.674 12.4174 27.6979 12.2724L27.9975 12.2603C27.9694 12.3808 27.9694 12.5061 27.9975 12.6266C28.0314 12.746 28.087 12.783 28.1508 12.7645C28.2147 12.746 28.2352 12.7007 28.2409 12.536C28.2537 12.2494 28.3687 12.1077 28.5149 12.0669C28.7487 11.9986 28.9838 12.1492 29.0732 12.4613M28.5814 11.0271C28.6202 11.1079 28.6416 11.196 28.6441 11.2856C28.6466 11.3753 28.6301 11.4644 28.5958 11.5473C28.5615 11.6301 28.5102 11.7049 28.445 11.7666C28.3799 11.8283 28.3025 11.8756 28.2179 11.9054C28.0922 11.9608 27.9528 11.9773 27.8177 11.9528C27.6825 11.9284 27.5578 11.864 27.4595 11.7681C27.3612 11.6722 27.294 11.5491 27.2664 11.4146C27.2387 11.2802 27.252 11.1405 27.3045 11.0137C27.357 10.8868 27.4463 10.7786 27.5609 10.7029C27.6755 10.6272 27.8101 10.5875 27.9475 10.589C28.0848 10.5904 28.2186 10.6329 28.3316 10.711C28.4445 10.7891 28.5315 10.8991 28.5814 11.0271ZM27.3677 8.70685C27.4144 8.7758 27.4458 8.8539 27.4599 8.93594C27.474 9.01799 27.4705 9.1021 27.4495 9.18266C27.4285 9.26323 27.3906 9.3384 27.3383 9.40318C27.286 9.46796 27.2204 9.52085 27.1461 9.55834C27.1012 9.58831 27.054 9.61457 27.0049 9.63685L26.5405 8.92961C26.4083 9.03493 26.4319 9.21876 26.5367 9.37642C26.603 9.47985 26.6853 9.57207 26.7807 9.64961L26.5801 9.84813C26.4499 9.75198 26.339 9.63224 26.2531 9.49515C26.1934 9.42419 26.1501 9.34104 26.126 9.25155C26.102 9.16205 26.0979 9.06838 26.1139 8.97713C26.13 8.88587 26.1659 8.79924 26.2191 8.72332C26.2722 8.6474 26.3414 8.58404 26.4217 8.5377C26.4933 8.48267 26.5755 8.44315 26.6632 8.42164C26.751 8.40014 26.8422 8.39713 26.9311 8.4128C27.0201 8.42848 27.1048 8.46249 27.1798 8.51267C27.2549 8.56286 27.3186 8.62812 27.3671 8.70429M26.6778 6.85323L26.11 7.33897L26.1138 7.3428C26.1842 7.33993 26.2544 7.35235 26.3195 7.37918C26.3874 7.40707 26.4477 7.45085 26.4951 7.50684C26.6625 7.70599 26.6536 7.97472 26.354 8.23068L25.7721 8.72855L25.5102 8.41642L26.0576 7.94791C26.1853 7.83621 26.239 7.71493 26.1406 7.59748C26.1123 7.56352 26.0741 7.53916 26.0313 7.52773C25.9885 7.5163 25.9433 7.51837 25.9017 7.53365L25.8238 7.58216L25.2336 8.0877L24.971 7.77557L26.4166 6.53854L26.6778 6.85323ZM25.1263 6.09493L25.254 6.2162L25.4508 6.01131L25.7995 6.22386L25.5402 6.49514L25.7491 6.6994L25.5415 6.91642L25.332 6.7128L25.0036 7.0562C24.8944 7.17046 24.8708 7.24769 24.9602 7.33514C24.9889 7.36324 25.0201 7.38866 25.0534 7.4111L24.8427 7.63578C24.7625 7.59533 24.6898 7.54134 24.628 7.47621C24.5438 7.4006 24.4929 7.29487 24.4862 7.18195C24.5008 7.04251 24.5682 6.91393 24.6747 6.82259L25.0451 6.43514L24.9174 6.31386L25.1263 6.09493ZM24.8912 5.24535L24.2224 7.0211L23.8781 6.74918L24.0525 6.29535L23.6475 5.9762L23.2643 6.2628L22.9321 6.0011L24.4734 4.91599L24.8912 5.24535ZM21.4744 4.44237C21.5041 4.36232 21.5501 4.28933 21.6096 4.22805C21.6691 4.16678 21.7407 4.11857 21.8198 4.08649C21.899 4.05442 21.984 4.03919 22.0693 4.04178C22.1547 4.04436 22.2386 4.06471 22.3157 4.10152C22.376 4.12738 22.429 4.1677 22.47 4.21892C22.511 4.27013 22.5387 4.33066 22.5508 4.39514H22.5552L22.8867 3.76577L23.2451 3.95726L22.5393 5.29769C22.4709 5.42854 22.4026 5.56897 22.3662 5.65003L22.0468 5.47961L22.1196 5.29961H22.1151C22.0454 5.34215 21.9655 5.36498 21.8838 5.36565C21.8021 5.36633 21.7218 5.34482 21.6514 5.30344C21.5816 5.25997 21.5214 5.20282 21.4744 5.13542C21.4274 5.06803 21.3946 4.9918 21.3779 4.91135C21.3612 4.83091 21.3611 4.74792 21.3775 4.66742C21.3938 4.58692 21.4264 4.51057 21.4732 4.44301M20.1496 3.65471C20.2071 3.50152 20.2512 3.36811 20.287 3.25769L20.6166 3.38535L20.5731 3.5596H20.5802C20.645 3.51371 20.7203 3.48481 20.7992 3.47555C20.8781 3.46629 20.9581 3.47698 21.0318 3.50662C21.2815 3.60173 21.4067 3.83982 21.2694 4.20237L20.9954 4.93322L20.6159 4.78769L20.8714 4.10535C20.9308 3.94641 20.9168 3.81748 20.7795 3.7645C20.7363 3.74849 20.6892 3.74667 20.645 3.7593C20.6007 3.77193 20.5617 3.79835 20.5335 3.83471C20.5112 3.86128 20.4941 3.89181 20.4831 3.92471L20.2141 4.63833L19.8347 4.4928L20.1496 3.65471ZM18.5335 3.7696C18.6159 3.43833 18.95 3.35215 19.3972 3.46769L19.4016 3.44918C19.4189 3.38088 19.4061 3.27556 19.21 3.22641C19.0867 3.19732 18.958 3.20062 18.8363 3.23598L18.8274 2.96152C18.999 2.92274 19.1776 2.92668 19.3473 2.97301C19.425 2.98158 19.4997 3.00785 19.5657 3.04979C19.6316 3.09173 19.687 3.14823 19.7277 3.21494C19.7683 3.28165 19.7931 3.35679 19.8002 3.43458C19.8072 3.51237 19.7963 3.59073 19.7683 3.66365L19.6591 4.11045C19.6317 4.21393 19.6123 4.31934 19.6009 4.42577L19.2458 4.33705L19.2541 4.20301H19.2464C19.1886 4.24321 19.1224 4.26982 19.0528 4.28088C18.9833 4.29193 18.9121 4.28713 18.8446 4.26684C18.7909 4.25613 18.74 4.23463 18.6949 4.20362C18.6497 4.17262 18.6114 4.13277 18.5822 4.08649C18.553 4.04022 18.5335 3.98849 18.5249 3.93445C18.5163 3.88041 18.5188 3.8252 18.5323 3.77216M17.1008 2.61364C17.1662 2.61353 17.2306 2.62954 17.2883 2.66028C17.3461 2.69101 17.3953 2.7355 17.4317 2.78981H17.4368L17.4949 2.07875L17.8992 2.11194L17.776 3.62535C17.7638 3.77343 17.7568 3.92918 17.7549 4.0179L17.3953 3.9879V3.79641H17.3895C17.3427 3.8638 17.2785 3.91721 17.2037 3.95094C17.1288 3.98467 17.0463 3.99744 16.9647 3.9879C16.8836 3.97564 16.8057 3.94698 16.736 3.90366C16.6663 3.86035 16.6061 3.80329 16.5592 3.73598C16.5123 3.66866 16.4796 3.59249 16.4631 3.51212C16.4466 3.43176 16.4467 3.34888 16.4633 3.26854C16.4592 3.18313 16.4728 3.0978 16.5033 3.01791C16.5339 2.93802 16.5806 2.8653 16.6406 2.80433C16.7006 2.74336 16.7725 2.69545 16.852 2.66363C16.9314 2.6318 17.0165 2.61674 17.1021 2.61939M15.9957 2.04173C16.0241 2.03977 16.0526 2.0437 16.0794 2.05328C16.1062 2.06285 16.1307 2.07785 16.1514 2.09735C16.1721 2.11685 16.1886 2.14041 16.1997 2.16657C16.2109 2.19272 16.2165 2.2209 16.2162 2.24933C16.216 2.27776 16.2098 2.30583 16.1982 2.33177C16.1865 2.35771 16.1696 2.38097 16.1486 2.40008C16.1275 2.41918 16.1027 2.43373 16.0757 2.4428C16.0488 2.45187 16.0202 2.45528 15.9919 2.45279C15.9643 2.45441 15.9367 2.45025 15.9108 2.44059C15.8849 2.43094 15.8613 2.41599 15.8415 2.39671C15.8218 2.37742 15.8062 2.35423 15.7959 2.32861C15.7856 2.30298 15.7808 2.27549 15.7817 2.2479C15.7806 2.21985 15.7854 2.19188 15.7958 2.16582C15.8063 2.13976 15.8221 2.11621 15.8423 2.09673C15.8626 2.07724 15.8867 2.06227 15.9131 2.05279C15.9396 2.04331 15.9677 2.03954 15.9957 2.04173ZM16.1963 2.6162L16.1905 3.93237H15.7849L15.7907 2.61683L16.1963 2.6162ZM14.4518 2.71386L14.4882 2.89386H14.494C14.5352 2.81989 14.5946 2.75764 14.6666 2.71297C14.7386 2.6683 14.8207 2.64269 14.9053 2.63854C15.1896 2.60917 15.4694 2.83003 15.5115 3.25003C15.5313 3.33434 15.5333 3.42184 15.5174 3.50697C15.5015 3.5921 15.4681 3.673 15.4193 3.74454C15.3704 3.81608 15.3073 3.87669 15.2337 3.92254C15.1602 3.96839 15.078 3.99848 14.9922 4.01088C14.9285 4.02131 14.8632 4.01626 14.8018 3.99615C14.7404 3.97604 14.6848 3.94147 14.6396 3.89535H14.6326L14.6965 4.54577L14.2934 4.58726L14.1529 3.18684C14.1356 3.01577 14.1158 2.86769 14.0986 2.74832L14.4518 2.71386ZM13.9625 4.11811L13.5633 4.19152L13.3129 2.89896L13.7115 2.82045L13.9625 4.11811ZM13.4036 2.30215C13.4308 2.29552 13.4591 2.2945 13.4868 2.29915C13.5144 2.3038 13.5408 2.31404 13.5643 2.32922C13.5879 2.3444 13.6081 2.36422 13.6237 2.38747C13.6394 2.41071 13.6501 2.4369 13.6553 2.46442C13.6604 2.49195 13.6599 2.52023 13.6538 2.54756C13.6477 2.57489 13.636 2.60068 13.6196 2.62336C13.6032 2.64605 13.5823 2.66515 13.5582 2.6795C13.5341 2.69385 13.5074 2.70315 13.4796 2.70683C13.4524 2.71347 13.4241 2.71449 13.3965 2.70984C13.3688 2.70518 13.3424 2.69495 13.3189 2.67977C13.2953 2.66458 13.2751 2.64476 13.2595 2.62152C13.2439 2.59827 13.2331 2.57209 13.228 2.54457C13.2228 2.51704 13.2233 2.48875 13.2294 2.46143C13.2355 2.4341 13.2472 2.40831 13.2636 2.38562C13.2801 2.36294 13.3009 2.34384 13.325 2.32949C13.3491 2.31514 13.3758 2.30584 13.4036 2.30215ZM12.1963 2.67683L12.5943 4.08939L13.2822 3.89279L13.3755 4.22343L12.2953 4.53301L11.8028 2.78726L12.1963 2.67683ZM10.4934 3.78301C10.4581 3.70994 10.4379 3.63056 10.4338 3.54954C10.4298 3.46853 10.442 3.38753 10.4697 3.3113C10.5261 3.19096 10.6254 3.09602 10.7482 3.04513C10.8145 3.01416 10.8848 2.99267 10.9571 2.9813L11.067 3.27684C11.0229 3.28168 10.9798 3.2933 10.9392 3.3113C10.8166 3.36556 10.807 3.48492 10.8581 3.60301L10.8843 3.66684L11.1245 3.56216L11.2439 3.83854L11.0069 3.94258L11.4087 4.87322L11.0338 5.0379L10.632 4.10726L10.4755 4.1762L10.356 3.89982L10.5125 3.83088L10.4934 3.78301ZM9.56333 4.28471C9.63873 4.23711 9.72335 4.20599 9.81164 4.19338C9.89992 4.18078 9.98988 4.18697 10.0756 4.21157C10.1613 4.23616 10.2409 4.2786 10.309 4.33609C10.3772 4.39357 10.4324 4.46482 10.471 4.54514C10.5212 4.6235 10.5544 4.71154 10.5683 4.80354C10.5823 4.89554 10.5767 4.98945 10.5519 5.07915C10.5272 5.16885 10.4838 5.25234 10.4246 5.32419C10.3654 5.39604 10.2918 5.45465 10.2085 5.4962C10.1324 5.54442 10.047 5.57602 9.9579 5.58893C9.86877 5.60185 9.77791 5.59578 9.69129 5.57112C9.60467 5.54647 9.52424 5.50379 9.45529 5.44588C9.38634 5.38798 9.33043 5.31616 9.29121 5.23514C9.24092 5.15635 9.20795 5.06778 9.19448 4.9753C9.18101 4.88282 9.18734 4.78853 9.21307 4.69869C9.23879 4.60884 9.28332 4.52547 9.3437 4.4541C9.40408 4.38274 9.47894 4.325 9.56333 4.28471ZM7.60614 5.65961L8.15612 6.04259C8.22 6.09046 8.30048 6.14982 8.3567 6.19514L8.36308 6.19003C8.33498 6.1262 8.29026 6.03173 8.25896 5.96088L7.9894 5.35322L8.33115 5.08195L8.6237 5.95259C8.75826 6.2554 8.8166 6.58653 8.79361 6.91706C8.76721 7.06255 8.69857 7.19706 8.59623 7.30387L8.31645 7.08493C8.3577 7.03598 8.38973 6.97997 8.41099 6.91961C8.44134 6.84572 8.45212 6.76526 8.44229 6.68599L8.42313 6.62599C8.40777 6.60809 8.38855 6.5939 8.36692 6.5845L7.25163 5.9379L7.60614 5.65961ZM6.65374 5.9979L6.90925 6.27046L7.12004 6.06812L7.32572 6.28578L7.11876 6.4894L7.44454 6.83344C7.55376 6.94833 7.63042 6.97514 7.71921 6.88961C7.74824 6.86139 7.77494 6.83086 7.79905 6.79833L8.0124 7.02046C7.96895 7.09908 7.91259 7.16985 7.84568 7.22982C7.80694 7.26966 7.76069 7.30145 7.70961 7.32336C7.65852 7.34527 7.6036 7.35687 7.54802 7.35748C7.40995 7.33683 7.28521 7.26364 7.19989 7.15323L6.83132 6.76386L6.70356 6.8845L6.49852 6.66812L6.62627 6.54748L6.43081 6.34067L6.65374 5.9979ZM5.94535 7.23684C5.99839 7.17298 6.06465 7.12136 6.13957 7.08554C6.21448 7.04971 6.29628 7.03053 6.37932 7.02932C6.46237 7.02811 6.54469 7.04489 6.62062 7.07851C6.69655 7.11213 6.76429 7.16179 6.81918 7.22408C6.85936 7.25966 6.89673 7.29828 6.93097 7.33961L6.38035 7.97791C6.51577 8.0794 6.6844 8.00599 6.80896 7.8611C6.89034 7.76908 6.95634 7.66454 7.00442 7.55153L7.24716 7.69195C7.19073 7.84399 7.10623 7.98408 6.99804 8.10493C6.94675 8.18136 6.87913 8.24546 6.80005 8.29261C6.72097 8.33975 6.6324 8.36877 6.54074 8.37756C6.44907 8.38636 6.3566 8.37471 6.26999 8.34345C6.18337 8.3122 6.10478 8.26213 6.03989 8.19685C5.96839 8.14158 5.90894 8.07231 5.86519 7.99327C5.82144 7.91424 5.79431 7.8271 5.78546 7.73722C5.7766 7.64733 5.78622 7.55658 5.81371 7.47054C5.84121 7.3845 5.886 7.30497 5.94535 7.23684ZM5.34682 8.02833L6.40143 8.80259L6.16253 9.13323L5.10792 8.35834L5.34682 8.02833ZM4.76746 7.85599C4.78228 7.83209 4.80194 7.81156 4.82517 7.79569C4.8484 7.77983 4.87469 7.769 4.90236 7.76389C4.93003 7.75878 4.95846 7.75951 4.98583 7.76603C5.0132 7.77255 5.0389 7.78471 5.06129 7.80174C5.08398 7.81849 5.10299 7.83971 5.11715 7.86409C5.13131 7.88848 5.14031 7.9155 5.1436 7.9435C5.14689 7.97149 5.14441 7.99987 5.13629 8.02687C5.12818 8.05386 5.11461 8.07891 5.09642 8.10046C5.08184 8.12387 5.0625 8.14395 5.03964 8.1594C5.01679 8.17485 4.99094 8.18532 4.96377 8.19013C4.9366 8.19495 4.90872 8.194 4.88194 8.18735C4.85517 8.1807 4.83009 8.16849 4.80834 8.15153C4.785 8.13578 4.76524 8.11529 4.75035 8.0914C4.73546 8.06751 4.72577 8.04075 4.72191 8.01287C4.71806 7.985 4.72012 7.95662 4.72797 7.92959C4.73581 7.90256 4.74927 7.87748 4.76746 7.85599ZM4.74893 8.84089C4.80384 8.75051 4.87334 8.66985 4.95462 8.60217L5.17755 8.81663C5.11492 8.86323 5.06271 8.92236 5.02424 8.99025C4.99758 9.03034 4.97966 9.07559 4.97165 9.12306C4.96365 9.17053 4.96574 9.21915 4.97779 9.26576C4.98985 9.31237 5.01159 9.35592 5.0416 9.39357C5.07162 9.43122 5.10923 9.46213 5.152 9.48429C5.1911 9.51307 5.23594 9.53308 5.28348 9.54298C5.33101 9.55287 5.38013 9.55241 5.42747 9.54163C5.47481 9.53085 5.51928 9.51 5.55783 9.4805C5.59638 9.451 5.62812 9.41354 5.65088 9.37068C5.69373 9.30324 5.72342 9.2283 5.73839 9.14983L6.01753 9.26663C5.99245 9.38864 5.94479 9.50489 5.877 9.6094C5.83717 9.69168 5.7799 9.7643 5.70917 9.82225C5.63844 9.88019 5.55594 9.92206 5.46739 9.94496C5.37884 9.96785 5.28637 9.97122 5.19639 9.95483C5.10641 9.93844 5.02108 9.90268 4.94631 9.85004C4.86283 9.80045 4.79075 9.73381 4.73479 9.65449C4.67883 9.57516 4.64025 9.48493 4.62156 9.3897C4.60287 9.29446 4.6045 9.19635 4.62634 9.10178C4.64818 9.00722 4.69037 8.91832 4.74893 8.84089ZM3.92812 10.3364C3.96143 10.2538 4.01185 10.1791 4.07608 10.1173C4.14031 10.0555 4.21689 10.008 4.3008 9.97784C4.3847 9.94771 4.47404 9.93564 4.56294 9.94243C4.65184 9.94923 4.7383 9.97473 4.81664 10.0173C4.90285 10.0524 4.9807 10.1052 5.04512 10.1724C5.10954 10.2395 5.15909 10.3194 5.19054 10.407C5.22199 10.4945 5.23465 10.5877 5.22768 10.6805C5.2207 10.7732 5.19427 10.8635 5.15008 10.9454C5.11656 11.0286 5.06587 11.1038 5.00131 11.1661C4.93675 11.2284 4.85978 11.2764 4.7754 11.307C4.69102 11.3376 4.60114 11.3501 4.51161 11.3437C4.42209 11.3372 4.33492 11.312 4.25581 11.2696C4.16925 11.2343 4.09119 11.1811 4.02681 11.1133C3.96243 11.0456 3.9132 10.965 3.88239 10.8768C3.85158 10.7886 3.8399 10.6948 3.84811 10.6018C3.85633 10.5087 3.88425 10.4185 3.93003 10.3371M2.88182 11.6137C2.92929 11.4621 3.00855 11.3224 3.11433 11.2039L3.39666 11.3954C3.30498 11.4895 3.23634 11.6035 3.19609 11.7286C3.13988 11.8971 3.18843 12.0043 3.27721 12.0337C3.3858 12.0707 3.46884 11.9896 3.62343 11.7956C3.83614 11.5294 4.04054 11.4394 4.28008 11.5211C4.56689 11.6175 4.73552 11.9226 4.57838 12.3943C4.52452 12.563 4.43374 12.7176 4.31266 12.8469L4.0201 12.6598C4.13185 12.5484 4.21719 12.4134 4.26986 12.2647C4.32926 12.086 4.28711 11.9673 4.17532 11.929C4.06354 11.8907 3.98369 11.9539 3.83933 12.1358C3.6477 12.3911 3.42732 12.5188 3.17884 12.4377C2.88757 12.3394 2.7464 12.019 2.88118 11.613M3.93578 20.2128C3.84739 20.2427 3.75362 20.2532 3.66081 20.2437C3.56801 20.2341 3.47833 20.2048 3.39784 20.1577C3.31735 20.1105 3.24794 20.0467 3.19428 19.9704C3.14063 19.8941 3.104 19.8072 3.08686 19.7156C3.05866 19.6306 3.04866 19.5406 3.05753 19.4515C3.06639 19.3624 3.09392 19.2762 3.13832 19.1984C3.18272 19.1206 3.24299 19.0531 3.31524 19.0001C3.38748 18.9471 3.47007 18.9099 3.55763 18.8909C3.64556 18.861 3.73885 18.8502 3.83129 18.8591C3.92374 18.868 4.01323 18.8965 4.09382 18.9426C4.17441 18.9887 4.24426 19.0514 4.29873 19.1266C4.3532 19.2018 4.39105 19.2877 4.40975 19.3786C4.43837 19.4644 4.44861 19.5553 4.43981 19.6453C4.43101 19.7353 4.40337 19.8225 4.35868 19.9012C4.31398 19.9798 4.25324 20.0482 4.18039 20.1019C4.10753 20.1556 4.0242 20.1934 3.93578 20.2128ZM2.78089 14.2766L2.96039 14.2869V14.2786C2.90281 14.2232 2.85975 14.1545 2.83502 14.0786C2.81029 14.0027 2.80464 13.9219 2.81858 13.8432C2.86138 13.5777 3.0677 13.4073 3.44713 13.4692L4.21365 13.5937L4.14977 13.9977L3.43499 13.8815C3.26891 13.8541 3.14627 13.8943 3.12263 14.0405C3.11558 14.0862 3.12315 14.1329 3.14426 14.1741C3.16536 14.2152 3.19893 14.2487 3.24017 14.2696C3.27042 14.2864 3.30359 14.2972 3.3379 14.3015L4.08078 14.4235L4.01691 14.8269L3.13988 14.6839C2.97891 14.6571 2.84094 14.6411 2.72723 14.6271L2.78089 14.2766ZM3.221 15.0662L3.67517 15.0854C3.78159 15.0925 3.88841 15.0908 3.99455 15.0803L3.97858 15.4492L3.84699 15.4677V15.476C3.89803 15.5251 3.93748 15.585 3.96245 15.6512C3.98742 15.7175 3.9973 15.7884 3.99136 15.859C3.99226 15.9136 3.98203 15.9677 3.96127 16.0182C3.94052 16.0687 3.90968 16.1144 3.87064 16.1526C3.8316 16.1908 3.78518 16.2206 3.73422 16.2403C3.68326 16.2599 3.62882 16.269 3.57424 16.2669C3.23569 16.2528 3.08558 15.9388 3.10794 15.4735H3.08878C3.01979 15.4735 2.9195 15.5041 2.9112 15.7058C2.90733 15.8333 2.93614 15.9596 2.99488 16.0728L2.73043 16.1366C2.65808 15.9748 2.62608 15.7978 2.63717 15.6209C2.62964 15.5435 2.63993 15.4653 2.66723 15.3925C2.69453 15.3196 2.73813 15.254 2.7947 15.2005C2.85127 15.1471 2.91932 15.1072 2.99364 15.0841C3.06797 15.0609 3.14661 15.055 3.22356 15.0669M3.26252 16.4354C3.31587 16.4307 3.36951 16.4307 3.42285 16.4354L3.48034 17.2805C3.6477 17.2556 3.71541 17.0839 3.70327 16.893C3.69682 16.7701 3.67073 16.649 3.62598 16.5343L3.89682 16.4615C3.9628 16.6097 4.00071 16.7687 4.0086 16.9307C4.02585 17.0214 4.02291 17.1148 3.99998 17.2043C3.97705 17.2938 3.9347 17.3771 3.87593 17.4484C3.81716 17.5196 3.74342 17.5771 3.65993 17.6167C3.57644 17.6563 3.48525 17.6771 3.39283 17.6775C3.30316 17.6892 3.21202 17.6823 3.12515 17.6572C3.03829 17.632 2.95758 17.5891 2.8881 17.5313C2.81862 17.4734 2.76188 17.4018 2.72144 17.321C2.681 17.2401 2.65775 17.1518 2.65314 17.0615C2.64609 16.9788 2.65687 16.8955 2.68475 16.8172C2.71263 16.739 2.75696 16.6676 2.81476 16.6079C2.87256 16.5482 2.94249 16.5016 3.01983 16.4712C3.09718 16.4407 3.18015 16.4272 3.26316 16.4315M2.83008 18.3771L3.06514 18.3247V18.3139C2.98595 18.3028 2.91221 18.2672 2.85425 18.2122C2.79629 18.1571 2.75701 18.0853 2.74193 18.0069C2.73623 17.9785 2.73344 17.9496 2.73362 17.9207L3.1105 17.8569C3.1095 17.8938 3.11185 17.9308 3.11752 17.9673C3.12181 18.031 3.14934 18.091 3.1949 18.1358C3.24046 18.1806 3.30088 18.2072 3.36473 18.2105C3.3945 18.213 3.42446 18.2126 3.45415 18.2092L4.10761 18.102L4.17149 18.506L3.3066 18.6484C3.11497 18.6803 2.9936 18.7058 2.88373 18.7294L2.83008 18.3771ZM3.27721 21.7058L4.01435 21.4033L4.01052 21.3962C3.93131 21.3854 3.85594 21.3694 3.78184 21.3567L3.07345 21.2028L2.88182 20.7369L3.81633 21.0005L4.54006 20.0252L4.71955 20.4688L4.16638 21.1767L4.40017 21.2488L4.9444 21.0254L5.09642 21.402L3.43052 22.0862L3.27721 21.7058ZM4.59308 23.2524C4.54868 23.1819 4.51982 23.1027 4.50843 23.0202C4.49703 22.9377 4.50336 22.8537 4.52699 22.7738C4.55062 22.6939 4.59101 22.6199 4.64547 22.5569C4.69993 22.4938 4.76721 22.443 4.84283 22.4079C4.88881 22.3805 4.93712 22.3573 4.9872 22.3384L5.42731 23.0609C5.564 22.9607 5.54484 22.7762 5.44583 22.6141C5.38313 22.5084 5.304 22.4134 5.2114 22.3326L5.41709 22.1411C5.54423 22.2417 5.65146 22.3651 5.73328 22.505C5.79021 22.5779 5.8305 22.6624 5.85133 22.7525C5.87215 22.8426 5.87301 22.9362 5.85385 23.0266C5.83468 23.1171 5.79594 23.2023 5.74036 23.2763C5.68478 23.3502 5.61368 23.4111 5.53206 23.4547C5.45867 23.5073 5.37512 23.544 5.28676 23.5625C5.19839 23.581 5.10713 23.5809 5.0188 23.5622C4.93047 23.5435 4.847 23.5067 4.7737 23.454C4.70041 23.4013 4.63889 23.334 4.59308 23.2562M5.22354 25.1277L5.80737 24.6618V24.6579C5.73694 24.6587 5.66718 24.6441 5.60297 24.6152C5.53613 24.5849 5.47777 24.5386 5.43306 24.4805C5.27209 24.2762 5.28933 24.0082 5.59722 23.763L6.19511 23.285L6.44742 23.6041L5.88466 24.0509C5.75052 24.1575 5.69303 24.2775 5.78949 24.3982C5.81683 24.433 5.85425 24.4585 5.89667 24.4713C5.93908 24.4841 5.98441 24.4835 6.02647 24.4696L6.10632 24.4237L6.71315 23.9392L6.96482 24.2584L5.47458 25.4469L5.22354 25.1277ZM6.98398 26.3788L6.74317 26.6226L5.76521 25.6384L6.00922 25.3926L6.35608 25.7418L7.38577 24.7026L7.67449 24.9937L6.64288 26.0328L6.98398 26.3788ZM8.75209 26.629C8.74166 26.6751 8.72188 26.7185 8.69397 26.7567V26.7605C8.66683 26.7976 8.63248 26.8289 8.59297 26.8525C8.55346 26.8761 8.5096 26.8915 8.46401 26.8977C8.41884 26.9041 8.37287 26.9017 8.32859 26.8907C8.28308 26.8793 8.24032 26.8589 8.20281 26.8307C8.1653 26.8025 8.13379 26.7672 8.11013 26.7267C8.08724 26.6873 8.07187 26.644 8.06478 26.599C8.05765 26.554 8.05938 26.508 8.06989 26.4637C8.08037 26.4174 8.10062 26.3739 8.12929 26.336V26.3322C8.15708 26.2942 8.19255 26.2624 8.23341 26.239C8.27291 26.2167 8.31624 26.202 8.36117 26.1956C8.40566 26.189 8.45101 26.1912 8.49467 26.202C8.54108 26.2122 8.58469 26.2325 8.62242 26.2613C8.66015 26.2893 8.69168 26.3247 8.71504 26.3654C8.7611 26.4451 8.77568 26.5391 8.75593 26.629M10.289 28.7073L10.0897 27.3765L9.6898 27.5124L9.33273 28.2056L8.83833 27.9465L10.0054 25.6792L10.5004 25.9384L9.98939 26.9296L11.4113 26.419L12.0092 26.7318L10.5988 27.2143L10.883 29.0207L10.289 28.7073ZM12.54 27.7722C12.5834 27.8151 12.6316 27.8528 12.6837 27.8845C12.7476 27.9248 12.8262 27.9733 12.9239 28.032C13.0281 28.0927 13.128 28.1605 13.2228 28.235C13.2982 28.2956 13.3643 28.367 13.4189 28.4469C13.4681 28.5203 13.5002 28.6039 13.5128 28.6914C13.5246 28.7893 13.5159 28.8886 13.4873 28.9831V28.9901C13.4582 29.1023 13.405 29.2068 13.3314 29.2965C13.2637 29.3772 13.1782 29.4412 13.0817 29.4835C12.9807 29.5269 12.8722 29.5501 12.7623 29.5518C12.6352 29.5537 12.5086 29.5365 12.3867 29.5007C12.1999 29.4483 12.0237 29.3636 11.8661 29.2505C11.7032 29.1339 11.5652 28.9861 11.4598 28.8158L11.8833 28.5222C11.9637 28.6388 12.0588 28.7446 12.1663 28.8369C12.2719 28.9263 12.3957 28.9916 12.5291 29.0284C12.6182 29.059 12.7144 29.063 12.8057 29.0399C12.8396 29.03 12.8703 29.0115 12.8947 28.986C12.9192 28.9606 12.9365 28.9292 12.945 28.895V28.8886C12.9543 28.8565 12.9565 28.8227 12.9514 28.7896C12.9429 28.7534 12.9248 28.7201 12.899 28.6933C12.8607 28.6512 12.8178 28.6136 12.7712 28.5809C12.697 28.529 12.6203 28.4809 12.5413 28.4367C12.435 28.3773 12.3324 28.3117 12.234 28.2401C12.1512 28.1817 12.0781 28.1106 12.0175 28.0294C11.9627 27.9555 11.9266 27.8694 11.9121 27.7786C11.8972 27.6715 11.9063 27.5625 11.9389 27.4594V27.4524C11.9663 27.3473 12.0165 27.2495 12.0858 27.1658C12.1515 27.0878 12.2332 27.0249 12.3254 26.9813C12.4228 26.9357 12.5283 26.9101 12.6358 26.906C12.7571 26.9011 12.8783 26.916 12.9948 26.9501C13.1633 26.9958 13.3228 27.07 13.4662 27.1696C13.6011 27.2653 13.719 27.3829 13.815 27.5175L13.4234 27.8469C13.3424 27.7484 13.2512 27.6587 13.1513 27.5794C13.0639 27.5092 12.9634 27.4571 12.8555 27.4262C12.7744 27.3963 12.6854 27.3948 12.6032 27.4218C12.5739 27.4321 12.5475 27.4494 12.5264 27.4722C12.5052 27.495 12.4899 27.5226 12.4819 27.5526V27.559C12.4707 27.595 12.4688 27.6332 12.4761 27.6701C12.4861 27.7089 12.5069 27.7441 12.5362 27.7716M16.1018 29.0335C16.0921 29.1693 16.0545 29.3016 15.9913 29.4222C15.9303 29.5383 15.8472 29.6413 15.7466 29.7254C15.6436 29.8108 15.5252 29.8758 15.3978 29.9169C15.1218 30.0012 14.8242 29.9784 14.5642 29.8531C14.3255 29.7363 14.1429 29.5297 14.0564 29.2786C14.0134 29.1501 13.9971 29.0141 14.0085 28.879V28.8707C14.018 28.7356 14.0554 28.6039 14.1184 28.4839C14.179 28.3672 14.2621 28.2638 14.363 28.1794C14.466 28.0939 14.5844 28.0289 14.7118 27.9879C14.8489 27.9442 14.9933 27.9282 15.1366 27.9407C15.279 27.9508 15.4181 27.9885 15.546 28.0518C15.6643 28.1093 15.7701 28.1897 15.8571 28.2883C15.9442 28.3869 16.0108 28.5018 16.0532 28.6262C16.0965 28.7549 16.1131 28.8911 16.1018 29.0265V29.0335ZM16.7993 29.9718L16.5106 27.4339L17.0644 27.3701L17.2956 29.4037L18.5508 29.2582L18.6083 29.7618L16.7993 29.9718ZM21.1461 28.9952L20.7437 28.5279L19.7293 28.8745L19.6923 29.4924L19.1544 29.6762L19.3633 26.8888L19.85 26.7216L21.6974 28.8069L21.1461 28.9952ZM22.6089 27.5533C22.5959 27.5975 22.5742 27.6388 22.545 27.6745C22.5163 27.7116 22.4805 27.7426 22.4398 27.7658C22.399 27.7889 22.354 27.8037 22.3074 27.8092C22.2623 27.8136 22.2169 27.8097 22.1732 27.7977C22.1296 27.7859 22.0888 27.7655 22.0532 27.7377C22.0159 27.709 21.9852 27.6726 21.9631 27.6311V27.6273C21.9403 27.5862 21.9264 27.5407 21.9222 27.4939C21.918 27.4484 21.9221 27.4026 21.9343 27.3586C21.9465 27.3153 21.9669 27.2748 21.9944 27.2392C22.0224 27.2017 22.0581 27.1706 22.0991 27.1479C22.1396 27.1248 22.1844 27.1102 22.2307 27.1052C22.2757 27.1003 22.3212 27.104 22.3649 27.116C22.4089 27.1279 22.4501 27.1483 22.4862 27.176C22.5238 27.2043 22.5549 27.2402 22.5776 27.2813V27.2852C22.6005 27.3262 22.615 27.3713 22.6204 27.4179C22.6246 27.4632 22.6203 27.5089 22.6076 27.5526M15.9599 26.6775C13.8482 26.6702 11.7859 26.0378 10.0336 24.8601C8.28133 23.6824 6.91753 22.0122 6.11447 20.0606C5.3114 18.1089 5.10507 15.9632 5.52154 13.8944C5.93801 11.8256 6.9586 9.92652 8.45443 8.43695C9.95026 6.94738 11.8543 5.93412 13.926 5.52512C15.9977 5.11612 18.1443 5.32972 20.0946 6.13895C22.0449 6.94818 23.7116 8.31675 24.884 10.0718C26.0565 11.8269 26.6823 13.8898 26.6823 16.0001C26.68 17.4047 26.4007 18.7951 25.8606 20.0919C25.3205 21.3887 24.53 22.5665 23.5343 23.558C22.5386 24.5495 21.3573 25.3353 20.0576 25.8706C18.758 26.4058 17.3656 26.68 15.9599 26.6775ZM26.6759 10.1149L27.4488 9.6994C27.6187 9.60812 27.7261 9.54366 27.8231 9.48621L27.9873 9.79706L27.7816 9.92472L27.7867 9.9343C27.865 9.9195 27.9459 9.92943 28.0183 9.96272C28.0906 9.99601 28.1508 10.051 28.1904 10.12C28.2054 10.145 28.2174 10.1715 28.2262 10.1992L27.8896 10.3798C27.8787 10.3445 27.8644 10.3103 27.8468 10.2777C27.8225 10.2188 27.7774 10.1709 27.72 10.1432C27.6626 10.1155 27.5969 10.11 27.5357 10.1277C27.5067 10.1369 27.4787 10.1489 27.452 10.1634L26.8675 10.4775L26.6759 10.1149ZM28.3603 21.8596C28.3099 21.9767 28.2347 22.0814 28.14 22.1667L27.9145 21.9828C27.9934 21.9223 28.0569 21.844 28.0997 21.7543C28.1413 21.6637 28.1278 21.596 28.0665 21.5679C28.0052 21.5398 27.9605 21.5756 27.8436 21.6988C27.6628 21.8903 27.5057 21.9343 27.3294 21.8564C27.1084 21.755 27.0253 21.5041 27.1799 21.1607C27.2367 21.026 27.3242 20.9064 27.4354 20.8116L27.6705 20.9992C27.5716 21.073 27.4911 21.1687 27.4354 21.2788C27.385 21.3911 27.4022 21.4556 27.4635 21.4837C27.5248 21.5118 27.5702 21.4881 27.6794 21.3694C27.8711 21.1601 28.0499 21.1256 28.1904 21.1926C28.2467 21.2239 28.296 21.2664 28.3352 21.3175C28.3745 21.3685 28.4029 21.427 28.4187 21.4894C28.4344 21.5518 28.4373 21.6168 28.4271 21.6804C28.4168 21.7439 28.3937 21.8047 28.3591 21.859M28.6746 21.035L27.4482 20.5818L27.5874 20.1988L28.8139 20.6513L28.6746 21.035ZM29.2783 21.0394C29.2705 21.0664 29.2571 21.0915 29.2392 21.1131C29.2212 21.1347 29.1989 21.1524 29.1738 21.165C29.1487 21.1776 29.1212 21.1848 29.0931 21.1863C29.065 21.1877 29.0369 21.1834 29.0106 21.1735C28.9843 21.1634 28.9604 21.1481 28.9402 21.1285C28.92 21.1089 28.9041 21.0854 28.8933 21.0594C28.8825 21.0334 28.8772 21.0055 28.8776 20.9774C28.878 20.9492 28.8841 20.9215 28.8956 20.8958C28.9034 20.8694 28.9167 20.845 28.9345 20.824C28.9523 20.803 28.9743 20.786 28.999 20.774C29.0238 20.7619 29.0508 20.7552 29.0783 20.7542C29.1058 20.7532 29.1332 20.758 29.1588 20.7681C29.1856 20.7769 29.2102 20.7912 29.231 20.8102C29.2519 20.8291 29.2685 20.8522 29.2798 20.878C29.291 20.9038 29.2967 20.9317 29.2965 20.9598C29.2962 20.988 29.29 21.0158 29.2783 21.0413M28.6299 19.0294C28.5374 19.0193 28.448 18.9898 28.3677 18.9427C28.2874 18.8957 28.218 18.8322 28.164 18.7564C28.11 18.6806 28.0726 18.5943 28.0544 18.503C28.0362 18.4118 28.0375 18.3178 28.0582 18.2271C28.0674 18.1373 28.0955 18.0504 28.1408 17.9722C28.186 17.8941 28.2473 17.8264 28.3207 17.7737C28.394 17.721 28.4777 17.6844 28.5663 17.6664C28.6548 17.6484 28.7462 17.6493 28.8343 17.6692C28.9272 17.6796 29.0168 17.7096 29.0971 17.7574C29.1775 17.8051 29.2467 17.8694 29.3001 17.9461C29.3536 18.0227 29.3901 18.1098 29.4071 18.2016C29.4242 18.2935 29.4214 18.3879 29.399 18.4786C29.3894 18.5673 29.3611 18.6531 29.316 18.7302C29.2709 18.8073 29.2101 18.8741 29.1374 18.926C29.0648 18.978 28.982 19.0141 28.8944 19.0319C28.8068 19.0498 28.7171 19.0489 28.6299 19.0294ZM29.5344 17.493C29.5334 17.5219 29.5296 17.5505 29.5229 17.5786L29.1396 17.5524C29.1492 17.5164 29.1554 17.4797 29.1582 17.4426C29.1681 17.3795 29.1547 17.3149 29.1205 17.2609C29.0863 17.2069 29.0336 17.1671 28.9723 17.149C28.9427 17.1417 28.9126 17.137 28.8822 17.1349L28.2217 17.089L28.2498 16.6805L29.1237 16.7443C29.3153 16.7584 29.4431 16.7609 29.5529 16.7635L29.5287 17.1152H29.2878V17.126C29.3621 17.1556 29.4254 17.2073 29.4691 17.2741C29.5129 17.3409 29.535 17.4196 29.5325 17.4994M28.9525 16.4628C28.8989 16.4644 28.8452 16.4614 28.7922 16.4539L28.7672 15.6069C28.5999 15.6254 28.5252 15.7945 28.5296 15.9854C28.5314 16.1084 28.553 16.2304 28.5935 16.3466L28.3195 16.4105C28.2592 16.2598 28.2273 16.0992 28.2256 15.9369C28.2109 15.8445 28.2169 15.75 28.2433 15.6602C28.2697 15.5705 28.3158 15.4878 28.3782 15.418C28.4406 15.3483 28.5177 15.2933 28.604 15.2571C28.6903 15.2208 28.7836 15.2043 28.8771 15.2086C28.9671 15.2004 29.0579 15.2109 29.1436 15.2394C29.2294 15.2679 29.3083 15.3139 29.3754 15.3744C29.4426 15.4349 29.4965 15.5086 29.5337 15.5909C29.571 15.6732 29.5908 15.7623 29.5919 15.8526C29.5959 15.9356 29.582 16.0185 29.5512 16.0956C29.5204 16.1728 29.4734 16.2425 29.4133 16.2999C29.3532 16.3573 29.2815 16.4012 29.203 16.4285C29.1245 16.4559 29.041 16.466 28.9582 16.4584" fill="#4C4C4E"/>
<path d="M14.6051 3.53253C14.6222 3.58547 14.6568 3.63102 14.7033 3.66165C14.7497 3.69229 14.8052 3.70618 14.8607 3.70104C15.0363 3.68317 15.1251 3.52551 15.1027 3.30338C15.0817 3.09529 14.975 2.94593 14.7923 2.96444C14.7346 2.97207 14.6813 2.99912 14.6411 3.04114C14.6009 3.08315 14.5763 3.13761 14.5713 3.1955V3.26827L14.5892 3.44827C14.592 3.47683 14.5969 3.50505 14.6051 3.53253Z" fill="#4C4C4E"/>
<path d="M21.9225 5.07778C21.9718 5.10437 22.029 5.11255 22.0838 5.10086C22.1386 5.08916 22.1874 5.05835 22.2215 5.01395C22.2428 4.9907 22.2607 4.96447 22.2745 4.93608L22.3544 4.78416L22.3837 4.72033C22.401 4.66596 22.3988 4.60728 22.3776 4.55432C22.3564 4.50135 22.3175 4.45738 22.2675 4.42991C22.1052 4.3431 21.9423 4.44459 21.8465 4.62778C21.7418 4.82437 21.7737 4.99991 21.9225 5.07906" fill="#4C4C4E"/>
<path d="M29.0488 15.5919L29.0628 16.0763C29.0957 16.0789 29.1287 16.0746 29.1598 16.0637C29.1909 16.0528 29.2194 16.0355 29.2435 16.013C29.2675 15.9905 29.2866 15.9632 29.2995 15.9329C29.3124 15.9026 29.3188 15.8699 29.3184 15.837C29.3128 15.7692 29.2817 15.7062 29.2312 15.6606C29.1808 15.6151 29.1148 15.5905 29.0469 15.5919" fill="#4C4C4E"/>
<path d="M27.5975 11.4263C27.6569 11.5731 27.8415 11.6076 28.0586 11.5176C28.2394 11.4429 28.3934 11.298 28.3231 11.1257C28.2528 10.9533 28.0363 10.954 27.8587 11.0267C27.6511 11.1129 27.531 11.2648 27.5975 11.4263Z" fill="#4C4C4E"/>
<path d="M28.7758 18.0905C28.5548 18.0528 28.3734 18.1173 28.344 18.2896C28.3178 18.4454 28.4558 18.5737 28.687 18.6132C28.8786 18.6458 29.0869 18.6049 29.1175 18.4217C29.1501 18.2302 28.9655 18.123 28.7758 18.0905Z" fill="#4C4C4E"/>
<path d="M19.0483 4.0174C19.0933 4.02887 19.1409 4.02585 19.1841 4.00878C19.2273 3.9917 19.2641 3.96144 19.2891 3.92229L19.314 3.85846L19.3479 3.71995C19.1409 3.66506 18.9678 3.67463 18.9301 3.8291C18.9235 3.84945 18.9214 3.87101 18.9239 3.89227C18.9264 3.91353 18.9336 3.93398 18.9448 3.9522C18.9561 3.97042 18.9711 3.98598 18.989 3.99779C19.0069 4.0096 19.0271 4.01738 19.0483 4.02059" fill="#4C4C4E"/>
<path d="M17.1205 3.6693C17.1763 3.67402 17.232 3.65895 17.2778 3.62674C17.3236 3.59452 17.3566 3.54722 17.3709 3.49313C17.3813 3.4633 17.3873 3.43213 17.3888 3.40058L17.4029 3.22824V3.15547C17.3976 3.09877 17.3727 3.04569 17.3325 3.00537C17.2923 2.96505 17.2392 2.94003 17.1825 2.93462C16.9992 2.9193 16.8899 3.0776 16.8733 3.28441C16.8548 3.50653 16.9532 3.65526 17.1205 3.66739" fill="#4C4C4E"/>
<path d="M24.6632 26.2815C25.941 26.2815 26.9768 25.2544 26.9768 23.9874C26.9768 22.7204 25.941 21.6934 24.6632 21.6934C23.3855 21.6934 22.3496 22.7204 22.3496 23.9874C22.3496 25.2544 23.3855 26.2815 24.6632 26.2815Z" fill="white"/>
<path d="M24.5647 26.9335C23.8028 26.9358 23.0711 26.636 22.5301 26.0999C21.9891 25.5638 21.6829 24.8353 21.6787 24.074C21.6787 23.3095 21.9826 22.5763 22.5236 22.0357C23.0646 21.4951 23.7983 21.1914 24.5634 21.1914C25.3284 21.1914 26.0622 21.4951 26.6032 22.0357C27.1441 22.5763 27.4481 23.3095 27.4481 24.074C27.4447 24.8351 27.1391 25.5638 26.5985 26.0999C26.0579 26.6361 25.3264 26.9359 24.5647 26.9335ZM24.5647 21.972C24.1492 21.9751 23.7438 22.101 23.3998 22.3339C23.0558 22.5668 22.7885 22.8962 22.6316 23.2807C22.4747 23.6652 22.4353 24.0875 22.5183 24.4943C22.6012 24.9012 22.8029 25.2744 23.0978 25.5669C23.3927 25.8594 23.7677 26.0581 24.1755 26.1379C24.5833 26.2177 25.0056 26.1751 25.3891 26.0154C25.7727 25.8557 26.1004 25.5862 26.3308 25.2406C26.5613 24.8951 26.6842 24.4892 26.6841 24.074C26.6814 23.5146 26.4567 22.9791 26.0594 22.585C25.662 22.191 25.1245 21.9705 24.5647 21.972ZM24.5717 25.7023C24.203 25.7061 23.8437 25.5854 23.5523 25.3597C23.2608 25.134 23.0541 24.8166 22.9658 24.4589C22.8774 24.1011 22.9125 23.7241 23.0655 23.3888C23.2184 23.0535 23.4802 22.7796 23.8084 22.6116C23.8115 22.6108 23.8145 22.6095 23.8173 22.6078H23.8224L23.8333 22.604C23.9133 22.5645 23.9967 22.532 24.0824 22.5069L24.122 22.4916L24.1309 22.4878C24.1507 22.4808 24.1699 22.475 24.1903 22.4699C24.4322 22.4104 24.6845 22.4067 24.9281 22.4589C25.1716 22.5111 25.4001 22.6179 25.5963 22.7713C25.7925 22.9247 25.9513 23.1206 26.0606 23.3443C26.1699 23.568 26.2269 23.8136 26.2274 24.0625C26.2274 24.0925 26.2274 24.1263 26.2235 24.1538V24.1825V24.1946C26.2236 24.2865 26.2076 24.3776 26.1763 24.464C26.1177 24.6222 26.013 24.7594 25.8757 24.8577C25.7384 24.9559 25.5748 25.0109 25.4059 25.0155H25.3599C25.1406 25.0095 24.9322 24.9184 24.779 24.7614C24.6257 24.6045 24.5397 24.3941 24.5391 24.1748C24.5393 24.0175 24.5819 23.8632 24.6624 23.728C24.781 23.5938 24.8488 23.4224 24.854 23.2435C24.8552 23.2007 24.8511 23.1578 24.8419 23.1159C24.5101 23.124 24.1944 23.2599 23.9606 23.4952C23.7268 23.7306 23.5931 24.0471 23.5875 24.3787C23.5819 24.7102 23.7048 25.0311 23.9305 25.2742C24.1562 25.5173 24.4672 25.6638 24.7985 25.6831C24.7234 25.695 24.6476 25.7012 24.5717 25.7016V25.7023Z" fill="url(#paint0_linear_1130_4143)"/>
<path d="M10.4734 10.1074C9.77702 10.447 9.18618 10.9695 8.76421 11.6189C8.34224 12.2684 8.10506 13.0203 8.07807 13.7942C7.51148 19.6915 14.7985 25.6525 18.9077 22.3538C18.9077 22.3538 14.5354 22.8587 12.0921 18.2406C9.6488 13.6225 11.079 10.9231 13.797 10.0008C13.2595 9.8315 12.6997 9.74393 12.1362 9.74101C11.5613 9.72911 10.9918 9.85473 10.4754 10.1074" fill="url(#paint1_linear_1130_4143)"/>
<path d="M15.4373 11.4721C14.1211 12.9163 12.8843 14.4309 11.7324 16.0091C11.7324 16.0091 12.3003 17.7453 12.7545 18.1589C12.7545 18.1589 14.8745 15.4697 16.0562 14.0329C17.1818 12.6631 20.0051 9.97014 22.8693 11.8729C22.5425 11.2261 22.0482 10.6787 21.4379 10.2874C20.8276 9.89624 20.1235 9.67559 19.3989 9.64844C19.3619 9.64844 19.3223 9.64844 19.2814 9.64844C17.8155 9.74849 16.4424 10.4012 15.4398 11.4746" fill="url(#paint2_linear_1130_4143)"/>
<path d="M11.8662 11.9727C12.5226 11.9835 13.1627 12.1779 13.7142 12.5338C14.1696 11.988 14.627 11.4684 15.0249 11.0657C15.1003 10.9903 15.1763 10.9176 15.253 10.8467C14.9732 10.6362 14.6648 10.4668 14.337 10.3438C13.8333 10.4235 13.3524 10.6097 12.9264 10.89C12.5005 11.1702 12.1392 11.538 11.8668 11.9689" fill="url(#paint3_linear_1130_4143)"/>
<path d="M20.0967 11.8347L20.1139 11.864C20.6174 12.8305 20.7751 13.9399 20.5611 15.0083C21.3915 15.7858 22.1778 16.583 22.8958 17.3579C23.3765 16.158 23.5491 14.857 23.3978 13.5734C23.3396 13.3401 23.2565 13.1137 23.15 12.8981C23.0951 12.803 23.033 12.7123 22.9641 12.6268C22.6973 12.3347 22.3685 12.1058 22.0018 11.9569C21.6351 11.808 21.2398 11.7429 20.8447 11.7664C20.5942 11.7647 20.3441 11.7872 20.098 11.8334" fill="url(#paint4_linear_1130_4143)"/>
<path d="M16.2568 21.6266C16.2568 21.6266 18.52 22.4762 19.7931 21.4811C19.8442 21.4415 19.8946 21.3994 19.9444 21.3579L18.8311 19.2949C18.1731 20.2675 17.29 21.0678 16.2568 21.6266Z" fill="url(#paint5_linear_1130_4143)"/>
<path d="M17.6693 13.2031C17.2485 13.5676 16.8586 13.9662 16.5035 14.3948C16.4167 14.5001 16.3253 14.6125 16.2295 14.7299C18.3998 17.2526 20.1323 20.1206 21.355 23.2148C21.575 22.4105 22.0905 21.7186 22.7985 21.2772C23.5065 20.8357 24.355 20.6773 25.1748 20.8334C22.9724 18.0122 20.4542 15.4521 17.6693 13.2031Z" fill="url(#paint6_linear_1130_4143)"/>
<defs>
<linearGradient id="paint0_linear_1130_4143" x1="24.5634" y1="21.1914" x2="24.5634" y2="26.9336" gradientUnits="userSpaceOnUse">
<stop stop-color="#BC3045"/>
<stop offset="1" stop-color="#761117"/>
</linearGradient>
<linearGradient id="paint1_linear_1130_4143" x1="13.4773" y1="9.74023" x2="13.4773" y2="23.2966" gradientUnits="userSpaceOnUse">
<stop stop-color="#BC3045"/>
<stop offset="1" stop-color="#761117"/>
</linearGradient>
<linearGradient id="paint2_linear_1130_4143" x1="17.3009" y1="9.64844" x2="17.3009" y2="18.1589" gradientUnits="userSpaceOnUse">
<stop stop-color="#BC3045"/>
<stop offset="1" stop-color="#761117"/>
</linearGradient>
<linearGradient id="paint3_linear_1130_4143" x1="13.5596" y1="10.3438" x2="13.5596" y2="12.5338" gradientUnits="userSpaceOnUse">
<stop stop-color="#BC3045"/>
<stop offset="1" stop-color="#761117"/>
</linearGradient>
<linearGradient id="paint4_linear_1130_4143" x1="21.7738" y1="11.7617" x2="21.7738" y2="17.3579" gradientUnits="userSpaceOnUse">
<stop stop-color="#BC3045"/>
<stop offset="1" stop-color="#761117"/>
</linearGradient>
<linearGradient id="paint5_linear_1130_4143" x1="18.1006" y1="19.2949" x2="18.1006" y2="21.9645" gradientUnits="userSpaceOnUse">
<stop stop-color="#BC3045"/>
<stop offset="1" stop-color="#761117"/>
</linearGradient>
<linearGradient id="paint6_linear_1130_4143" x1="20.7021" y1="13.2031" x2="20.7021" y2="23.2148" gradientUnits="userSpaceOnUse">
<stop stop-color="#BC3045"/>
<stop offset="1" stop-color="#761117"/>
</linearGradient>
</defs>
</svg>
