<svg width="32" height="32" viewBox="0 0 32 32" fill="none" xmlns="http://www.w3.org/2000/svg">
<path d="M6.83594 15.0244V16.938L19.8105 12.8881V17.7423L6.83594 20.391V20.3961L5.00439 20.7983V12.2989L6.8052 11.4946L19.8105 5.05469V10.2599L6.83594 15.0244Z" fill="url(#paint0_linear_1168_6075)"/>
<path d="M19.8105 5.05664V10.2618L23.1765 12.3085V7.72071L19.8105 5.05664Z" fill="#E83820"/>
<path d="M19.8105 19.4572L23.1765 20.0105V14.6004L19.8105 12.8867V19.4572Z" fill="#E83820"/>
<path d="M5.15552 24.9985L18.8217 24.7397V20.5566L5.15552 22.5444V24.9985Z" fill="#E94921"/>
<path d="M24.4599 15.6441L27.3493 17.386V24.7403H24.4599H19.8105V20.5598L24.4599 21.2489V15.6466V15.6441ZM24.4599 8.68164V13.0517L27.3493 14.7117V10.5362L24.4599 8.6842V8.68164Z" fill="#727171"/>
<defs>
<linearGradient id="paint0_linear_1168_6075" x1="12.4074" y1="5.05725" x2="12.4074" y2="20.8009" gradientUnits="userSpaceOnUse">
<stop offset="0.26" stop-color="#EF836A"/>
<stop offset="0.67" stop-color="#E94921"/>
</linearGradient>
</defs>
</svg>
