<svg width="56" height="56" viewBox="0 0 56 56" fill="none" xmlns="http://www.w3.org/2000/svg">
<mask id="mask0_1110_8100" style="mask-type:alpha" maskUnits="userSpaceOnUse" x="9" y="9" width="38" height="38">
<g clip-path="url(#clip0_1110_8100)">
<path d="M45.2243 31.1024V24.448L41.0355 23.9531C40.7438 22.9457 40.355 21.9913 39.8601 21.0899L42.4583 17.7848L37.7569 13.0834L34.4606 15.6815C33.5592 15.1866 32.6048 14.789 31.5973 14.5062L31.0936 10.3262H24.448L23.9531 14.5062C22.9457 14.7978 21.9913 15.1866 21.0899 15.6815L17.7848 13.0834L13.0834 17.7848L15.6815 21.0899C15.1866 21.9913 14.789 22.9457 14.5062 23.9531L10.3262 24.448V31.1024L14.5062 31.5973C14.7978 32.6048 15.1866 33.5592 15.6815 34.4606L13.0834 37.7657L17.7848 42.4671L21.0899 39.869C21.9825 40.3638 22.9457 40.7527 23.9531 41.0443L24.448 45.2243H31.0936L31.5973 41.0443C32.5959 40.7527 33.5592 40.3638 34.4518 39.869L37.7569 42.4671L42.4583 37.7657L39.8601 34.4606C40.355 33.568 40.7438 32.6048 41.0355 31.5973L45.2243 31.1024ZM27.7708 32.4987C25.1638 32.4987 23.0429 30.3866 23.0429 27.7708C23.0429 25.155 25.155 23.0429 27.7708 23.0429C30.3866 23.0429 32.4987 25.155 32.4987 27.7708C32.4987 30.3866 30.3866 32.4987 27.7708 32.4987Z" stroke="#2B2B2B" stroke-width="2" stroke-linecap="round" stroke-linejoin="round"/>
</g>
</mask>
<g mask="url(#mask0_1110_8100)">
<rect x="4" y="4" width="48" height="48" fill="url(#paint0_linear_1110_8100)"/>
</g>
<defs>
<linearGradient id="paint0_linear_1110_8100" x1="4" y1="4" x2="52" y2="52" gradientUnits="userSpaceOnUse">
<stop stop-color="#FF6900"/>
<stop offset="1" stop-color="#FFC7A0"/>
</linearGradient>
<clipPath id="clip0_1110_8100">
<rect width="38" height="38" fill="white" transform="translate(9 9)"/>
</clipPath>
</defs>
</svg>
