<svg width="34" height="34" viewBox="0 0 34 34" fill="none" xmlns="http://www.w3.org/2000/svg">
<mask id="mask0_1090_6350" style="mask-type:alpha" maskUnits="userSpaceOnUse" x="3" y="1" width="28" height="32">
<g clip-path="url(#clip0_1090_6350)">
<path d="M14 7H20" stroke="#2B2B2B" stroke-width="2" stroke-linecap="round" stroke-linejoin="round"/>
<path d="M25.8533 7C28.1423 7 30 8.73321 30 10.8688V28.1312C30 30.2668 28.1423 32 25.8533 32H8.14673C5.85774 32 4 30.2668 4 28.1312V10.8688C4 8.73321 5.85774 7 8.14673 7" stroke="#2B2B2B" stroke-width="2" stroke-linecap="round" stroke-linejoin="round"/>
<path d="M13 7.25C13 8.21667 12.1048 9 11 9C9.89524 9 9 8.21667 9 7.25V3.75C9 2.78333 9.89524 2 11 2C12.1048 2 13 2.78333 13 3.75V7.25Z" stroke="#2B2B2B" stroke-width="2" stroke-linecap="round" stroke-linejoin="round"/>
<path d="M25 7.25C25 8.21667 24.1048 9 23 9C21.8952 9 21 8.21667 21 7.25V3.75C21 2.78333 21.8952 2 23 2C24.1048 2 25 2.78333 25 3.75V7.25Z" stroke="#2B2B2B" stroke-width="2" stroke-linecap="round" stroke-linejoin="round"/>
<rect x="9" y="14" width="16" height="4" stroke="#2B2B2B" stroke-width="2" stroke-linecap="round" stroke-linejoin="round"/>
<rect x="9" y="22" width="16" height="4" stroke="#2B2B2B" stroke-width="2" stroke-linecap="round" stroke-linejoin="round"/>
</g>
</mask>
<g mask="url(#mask0_1090_6350)">
<rect width="34" height="34" fill="url(#paint0_linear_1090_6350)"/>
</g>
<defs>
<linearGradient id="paint0_linear_1090_6350" x1="0" y1="0" x2="34" y2="34" gradientUnits="userSpaceOnUse">
<stop stop-color="#FF6900"/>
<stop offset="1" stop-color="#FFC7A0"/>
</linearGradient>
<clipPath id="clip0_1090_6350">
<rect width="28" height="32" fill="white" transform="translate(3 1)"/>
</clipPath>
</defs>
</svg>
