<svg width="32" height="32" viewBox="0 0 32 32" fill="none" xmlns="http://www.w3.org/2000/svg">
<g clip-path="url(#clip0_1250_4245)">
<path d="M24.0802 24.0379L25.8618 20.8975C26.1472 20.3979 25.9786 19.7575 25.4856 19.467C24.9948 19.1765 24.3656 19.3504 24.0802 19.85L22.8932 21.9428H10.7422L15.0534 25.7435C15.4837 26.122 16.1323 26.0736 16.5042 25.6356C16.6729 25.4376 16.755 25.1933 16.755 24.9512C16.755 24.6585 16.6361 24.3658 16.4004 24.1589C16.4004 24.1589 16.275 24.0511 16.2599 24.0335H24.0802V24.0379Z" fill="#F08300"/>
<path d="M14.4517 9.13086L9.06155 11.0323C8.52534 11.2215 8.24211 11.8179 8.42805 12.3637C8.51237 12.6102 8.67669 12.806 8.88425 12.9271C9.13506 13.0745 9.44208 13.1141 9.73612 13.0107C9.73612 13.0107 9.88963 12.9557 9.90909 12.9491L6 19.8439L7.78158 22.9843C8.06481 23.4861 8.69399 23.6577 9.18695 23.3672C9.67775 23.0789 9.84855 22.4385 9.56315 21.9368L8.37616 19.8439L14.4517 9.13086Z" fill="#005BAC"/>
<path d="M18.6001 6H15.037C14.4683 6 14.0078 6.46875 14.0078 7.04754C14.0078 7.62632 14.4662 8.09287 15.037 8.09287H17.411L23.4887 18.8059L24.5654 13.1039C24.6735 12.5361 24.3059 11.9881 23.7481 11.8781C23.4951 11.8297 23.2465 11.8781 23.0411 11.9991C22.7925 12.1466 22.6022 12.3974 22.5438 12.7077C22.5438 12.7077 22.5135 12.8706 22.5092 12.8926L18.6001 6Z" fill="#009A3A"/>
</g>
<defs>
<clipPath id="clip0_1250_4245">
<rect width="20" height="20" fill="white" transform="translate(6 6)"/>
</clipPath>
</defs>
</svg>
