<svg width="139" height="28" viewBox="0 0 139 28" fill="none" xmlns="http://www.w3.org/2000/svg">
<g clip-path="url(#clip0_1090_3726)">
<path d="M13.5117 22.1336C11.9586 22.1336 10.4403 21.6564 9.14894 20.7625C7.85757 19.8686 6.85106 18.5981 6.25671 17.1115C5.66236 15.625 5.50684 13.9893 5.80984 12.4112C6.11284 10.8331 6.86074 9.38359 7.95896 8.24586C9.05719 7.10813 10.4564 6.33332 11.9797 6.01942C13.503 5.70552 15.0819 5.86663 16.5168 6.48236C17.9517 7.0981 19.1781 8.14081 20.041 9.47864C20.9038 10.8165 21.3644 12.3893 21.3644 13.9983C21.365 15.0668 21.1622 16.125 20.7678 17.1122C20.3734 18.0995 19.795 18.9966 19.0656 19.7521C18.3363 20.5077 17.4704 21.1069 16.5174 21.5155C15.5645 21.9241 14.5431 22.1341 13.5117 22.1336ZM13.5117 28.0006C16.1851 28.0014 18.7987 27.181 21.0219 25.6429C23.2452 24.1049 24.9782 21.9183 26.0019 19.3598C27.0255 16.8014 27.2938 13.9858 26.7728 11.2694C26.2518 8.55291 24.9648 6.05753 23.0748 4.09884C21.1847 2.14014 18.7764 0.806117 16.1544 0.265476C13.5324 -0.275165 10.8146 0.00186461 8.34464 1.06153C5.87466 2.12119 3.7635 3.91589 2.27815 6.21865C0.792808 8.5214 1.35919e-07 11.2288 0 13.9983C-1.82211e-07 17.7112 1.42341 21.272 3.95722 23.8978C6.49102 26.5236 9.92776 27.9994 13.5117 28.0006Z" fill="white"/>
<path d="M101.158 28.0006C98.4847 28.0006 95.8713 27.1792 93.6486 25.6405C91.4258 24.1017 89.6934 21.9146 88.6705 19.3557C87.6477 16.7969 87.3803 13.9813 87.9021 11.265C88.424 8.5487 89.7117 6.05375 91.6024 4.09568C93.493 2.13761 95.9018 0.80438 98.5239 0.264605C101.146 -0.27517 103.864 0.00275787 106.333 1.06324C108.803 2.12372 110.914 3.91912 112.398 6.22236C113.883 8.5256 114.675 11.2332 114.674 14.0028C114.673 17.7156 113.248 21.276 110.714 23.901C108.179 26.5259 104.742 28.0006 101.158 28.0006ZM101.158 22.1336C102.712 22.1344 104.23 21.658 105.522 20.7644C106.814 19.8708 107.822 18.6003 108.417 17.1136C109.011 15.6269 109.167 13.9908 108.864 12.4123C108.562 10.8338 107.814 9.38386 106.715 8.24586C105.617 7.10786 104.217 6.33296 102.693 6.01921C101.17 5.70545 99.5904 5.86693 98.1553 6.48322C96.7202 7.09951 95.4938 8.14291 94.6313 9.48143C93.7688 10.8199 93.3088 12.3934 93.3097 14.0028C93.3097 15.0705 93.5127 16.1278 93.9071 17.1143C94.3015 18.1008 94.8796 18.9971 95.6084 19.7521C96.3372 20.5071 97.2024 21.106 98.1546 21.5146C99.1068 21.9233 100.127 22.1336 101.158 22.1336Z" fill="white"/>
<path d="M29.989 0.849081V27.3354H35.6523V5.73379H41.8284V27.3354H47.4917V5.73379H49.6811C50.205 5.73379 50.7238 5.84076 51.2078 6.0486C51.6918 6.25644 52.1314 6.56106 52.5017 6.94505C52.8719 7.32904 53.1655 7.78487 53.3656 8.28648C53.5657 8.78808 53.6684 9.32563 53.6678 9.86838V27.3354H59.3311V10.0023C59.3311 7.52696 58.3822 5.15291 56.6931 3.40214C55.0039 1.65137 52.7127 0.667199 50.3233 0.666016H35.6695C33.7645 0.666016 31.871 0.727037 29.989 0.849081Z" fill="white"/>
<path d="M117.372 0.849081V27.3354H123.036V5.73379H129.341C130.4 5.73379 131.415 6.1694 132.163 6.94478C132.912 7.72017 133.332 8.77182 133.332 9.86838V27.3354H138.995V10.0023C138.995 7.52696 138.046 5.15291 136.357 3.40214C134.668 1.65137 132.377 0.667199 129.988 0.666016H123.031C121.109 0.666016 119.247 0.728526 117.372 0.849081Z" fill="white"/>
<path d="M63.7096 0.849081V27.3354H69.3901V5.73379H76.0834C76.6183 5.71557 77.1512 5.80898 77.6505 6.00845C78.1498 6.20792 78.6053 6.50938 78.9899 6.89491C79.3745 7.28043 79.6803 7.74214 79.8891 8.25258C80.098 8.76301 80.2056 9.31175 80.2056 9.86614C80.2056 10.4205 80.098 10.9693 79.8891 11.4797C79.6803 11.9901 79.3745 12.4519 78.9899 12.8374C78.6053 13.2229 78.1498 13.5244 77.6505 13.7238C77.1512 13.9233 76.6183 14.0167 76.0834 13.9985H71.1744L79.9236 27.3354H86.8755L80.596 17.7402C82.1096 17.1063 83.4059 16.0182 84.3182 14.6156C85.2306 13.2129 85.7174 11.5598 85.7162 9.86838C85.7162 7.42776 84.7803 5.0871 83.1145 3.36132C81.4486 1.63555 79.1892 0.666016 76.8334 0.666016H69.3642C67.4621 0.666016 65.5772 0.727037 63.7096 0.849081Z" fill="white"/>
</g>
<defs>
<clipPath id="clip0_1090_3726">
<rect width="139" height="28" fill="white"/>
</clipPath>
</defs>
</svg>
