<svg width="265" height="45" viewBox="0 0 265 45" fill="none" xmlns="http://www.w3.org/2000/svg">
<g clip-path="url(#clip0_1090_3649)">
<path d="M76.89 14.5H66.4C61.5 14.5 59.27 17.67 58.66 19.94L54.5 35.45H56.12C58.36 35.45 60 34.77 60.38 33.5C61.25 30.27 62.97 23.84 63.84 20.61C64.18 19.36 65.45 18.68 66.33 18.68C69.16 18.68 74.02 18.68 74.02 18.68C75.35 18.68 76.99 18.89 76.26 21.36C75.84 22.82 74.53 23.56 72.32 23.56H68.88C66.61 23.56 64.95 24.26 64.6 25.56L64.01 27.74H71.49C76.1 27.74 80.16 26.77 81.66 21.2C82.92 16.49 80.7 14.5 76.91 14.5H76.89Z" fill="white"/>
<path d="M97.07 13.9102H96C89.95 13.9102 83.97 17.9202 82.4 23.7602L81.75 26.1902C80.18 32.0302 84.02 36.0402 90.07 36.0402H91.14C98.22 36.0402 103.17 32.0302 104.74 26.1902L105.39 23.7602C106.96 17.9202 103.12 13.9102 97.07 13.9102ZM99.72 24.6202L99.49 25.4802C98.36 29.6802 95 31.9702 92.24 31.9702H91.2C88.44 31.9702 86.29 29.6902 87.42 25.4802L87.65 24.6202C88.77 20.4102 92.14 18.1402 94.9 18.1402H95.94C98.7 18.1402 100.84 20.4202 99.72 24.6202Z" fill="white"/>
<path d="M33.27 11.7502H28.11C26.01 11.7502 24.29 12.4602 23.33 13.2802L10.87 22.2602C11.87 18.5402 12.85 14.8902 13.69 11.7402H10.09C7.86 11.7402 6.23 12.4202 5.84 13.6702L0 35.4502H3.59C5.86 35.4502 7.52 34.7502 7.87 33.4502C8.59 30.7702 9.38 27.8202 10.18 24.8402L17.39 33.8502C18.09 34.7302 18.87 35.4502 21.42 35.4502H26.92L17.52 23.7902L33.27 11.7502Z" fill="white"/>
<path d="M49.17 22.69H41.89C39.92 22.69 38.99 22.3 39.5 20.61C39.91 19.15 41.16 18.69 43.36 18.69H52.55C54.82 18.69 56.47 17.99 56.82 16.69L57.4 14.5H44.18C39.57 14.5 35.48 15.56 34.09 20.78C33.12 24.4 34.89 26.9 38.99 26.88H46.26C48.29 26.88 49.14 27.32 48.62 29.07C48.21 30.53 46.89 31.26 44.68 31.26H35.38C33.11 31.26 31.45 31.96 31.11 33.26L30.52 35.45H43.85C48.83 35.45 52.58 34.27 54.02 28.91C55.15 24.68 52.75 22.69 49.15 22.69H49.17Z" fill="white"/>
<path d="M115.98 7.70047C115.57 7.46047 115.38 7.46047 115.04 7.82047C113.7 9.27047 111.3 12.0005 110.1 13.3705C111.73 15.7205 112.95 19.5005 112.25 24.3405C112.15 24.6705 112.36 24.8905 112.65 24.6005C115.7 21.5105 119.11 18.1105 122.17 15.8005C120.95 12.0905 118.27 9.01047 115.98 7.70047Z" fill="white"/>
<path d="M97.03 6.89999C96.87 6.98999 96.87 7.22999 97.03 7.22999C101.37 7.12999 104.26 8.11999 106.66 9.86999C109.4 7.62999 114.03 4.11999 116.29 2.95999C117.18 2.74999 118.77 2.55999 119.85 2.51999C118.91 3.51999 117.59 4.98999 116.84 5.81999C116.65 6.02999 116.84 6.21999 117.06 6.12999C123.21 3.70999 131.39 1.84999 138.06 1.36999C122.85 -1.81001 108.12 0.639989 97.02 6.88999L97.03 6.89999Z" fill="white"/>
<path d="M140.28 1.91016C134.35 2.62016 126.42 5.23016 122.38 7.33016C121.81 7.62016 121.92 7.83016 122.35 8.02016C123.67 8.61016 126.01 10.0602 127.33 12.1102C136.03 6.92016 143.43 4.35016 145.95 3.50016C144.08 2.89016 142.1 2.35016 140.28 1.92016V1.91016Z" fill="white"/>
<path d="M136.17 35.3008H135.15L132.9 38.2608H132.87V35.3008H132.01V42.1208H132.87V38.8208H132.9L135.28 42.1208H136.39L133.62 38.5208L136.17 35.3008Z" fill="white"/>
<path d="M138.42 37.0703C137.1 37.0703 136.42 38.0603 136.42 39.6303C136.42 41.2003 137.1 42.1903 138.42 42.1903C139.74 42.1903 140.42 41.2003 140.42 39.6303C140.42 38.0603 139.73 37.0703 138.42 37.0703ZM138.42 41.5203C137.64 41.5203 137.28 40.8803 137.28 39.6303C137.28 38.3803 137.64 37.7303 138.42 37.7303C139.2 37.7303 139.56 38.3703 139.56 39.6303C139.56 40.8903 139.2 41.5203 138.42 41.5203Z" fill="white"/>
<path d="M142.17 37.9203H142.15L142.12 37.1403H141.33C141.34 37.4903 141.37 37.8503 141.37 38.2103V42.1203H142.19V39.4803C142.19 38.4003 142.64 37.8503 143.28 37.8503C143.39 37.8503 143.49 37.8503 143.59 37.8803V37.0703C142.86 37.0703 142.44 37.3103 142.18 37.9203H142.17Z" fill="white"/>
<path d="M145.94 37.0703C144.7 37.0703 144.02 38.0603 144.02 39.6303C144.02 41.2003 144.7 42.1903 146.02 42.1903C146.52 42.1903 147.02 42.0803 147.42 41.9003L147.38 41.1603C147.1 41.3703 146.65 41.5703 146.24 41.5703C145.33 41.5703 144.88 41.0303 144.88 39.8803H147.69V39.4403C147.69 37.9803 147.06 37.0803 145.94 37.0803V37.0703ZM144.88 39.2503C144.9 38.0903 145.37 37.7003 145.89 37.7003C146.55 37.7003 146.87 38.2103 146.87 39.2503H144.88Z" fill="white"/>
<path d="M151.95 38.7603C151.95 38.0503 151.73 37.7503 151.52 37.5403C151.37 37.3803 150.93 37.0703 150.19 37.0703C149.7 37.0703 149.19 37.2103 148.79 37.4803L148.88 38.2503C149.16 37.9403 149.65 37.7303 150.16 37.7303C150.5 37.7303 150.82 37.8203 150.99 38.0403C151.15 38.2603 151.18 38.4703 151.18 38.8403V39.0703H150.7C148.99 39.0703 148.35 39.7803 148.35 40.7503C148.35 41.7203 148.97 42.1903 149.79 42.1903C150.55 42.1903 150.96 41.8303 151.19 41.4503H151.21L151.26 42.1203H152C151.98 41.9403 151.96 41.6503 151.96 41.3603V38.7603H151.95ZM151.17 40.3003C151.17 40.9803 150.72 41.5603 150.01 41.5603C149.44 41.5603 149.17 41.2203 149.17 40.6903C149.17 40.1103 149.63 39.6503 150.59 39.6503C150.81 39.6503 151.02 39.6503 151.17 39.6703V40.3003Z" fill="white"/>
<path d="M157.35 38.2705C156.37 37.7005 156.2 37.4305 156.2 36.9905C156.2 36.4205 156.62 35.9805 157.26 35.9805C157.68 35.9805 158.1 36.1005 158.42 36.2905V35.4605C158.12 35.3305 157.64 35.2305 157.19 35.2305C156.15 35.2305 155.3 35.8205 155.3 36.9405C155.3 37.8205 155.57 38.2405 156.8 38.9805C157.72 39.5405 157.86 39.8405 157.86 40.3705C157.86 40.9005 157.42 41.4505 156.65 41.4505C156.25 41.4505 155.74 41.2505 155.35 41.0105V41.9005C155.71 42.0805 156.23 42.1905 156.77 42.1905C158.08 42.1905 158.75 41.3405 158.75 40.2505C158.75 39.4705 158.4 38.8705 157.34 38.2705H157.35Z" fill="white"/>
<path d="M161.82 37.0703C161.1 37.0703 160.73 37.4803 160.51 37.8703H160.49L160.46 37.1403H159.67C159.68 37.4403 159.71 37.7603 159.71 38.0603V44.2303H160.53V41.4403H160.55C160.88 41.9603 161.25 42.1903 161.82 42.1903C162.85 42.1903 163.54 41.3403 163.54 39.6303C163.54 37.9203 162.85 37.0703 161.82 37.0703ZM161.63 41.5203C160.88 41.5203 160.54 40.8803 160.54 39.6303C160.54 38.3803 160.88 37.7303 161.63 37.7303C162.38 37.7303 162.72 38.3703 162.72 39.6303C162.72 40.8903 162.38 41.5203 161.63 41.5203Z" fill="white"/>
<path d="M166.25 37.0703C164.94 37.0703 164.25 38.0603 164.25 39.6303C164.25 41.2003 164.94 42.1903 166.25 42.1903C167.56 42.1903 168.25 41.2003 168.25 39.6303C168.25 38.0603 167.57 37.0703 166.25 37.0703ZM166.25 41.5203C165.47 41.5203 165.11 40.8803 165.11 39.6303C165.11 38.3803 165.47 37.7303 166.25 37.7303C167.03 37.7303 167.39 38.3703 167.39 39.6303C167.39 40.8903 167.03 41.5203 166.25 41.5203Z" fill="white"/>
<path d="M169.99 37.9203H169.97L169.94 37.1403H169.15C169.16 37.4903 169.19 37.8503 169.19 38.2103V42.1203H170.01V39.4803C170.01 38.4003 170.46 37.8503 171.09 37.8503C171.2 37.8503 171.3 37.8503 171.4 37.8803V37.0703C170.67 37.0703 170.25 37.3103 169.99 37.9203Z" fill="white"/>
<path d="M173.26 35.8809L172.44 36.1309V37.1509H171.65V37.8109H172.44V41.0109C172.44 41.8909 172.84 42.1909 173.59 42.1909C173.82 42.1909 174.09 42.1309 174.28 42.0609V41.3909C174.12 41.4609 173.98 41.5209 173.77 41.5209C173.4 41.5209 173.25 41.3009 173.25 40.7409V37.8009H174.28V37.1409H173.25V35.8809H173.26Z" fill="white"/>
<path d="M176.67 39.3701L176.38 39.2601C175.83 39.0401 175.54 38.8201 175.54 38.4201C175.54 38.0201 175.82 37.7401 176.36 37.7401C176.73 37.7401 177.08 37.8401 177.34 37.9601L177.38 37.2601C177.09 37.1501 176.74 37.0801 176.33 37.0801C175.36 37.0801 174.73 37.7001 174.73 38.5201C174.73 39.1501 174.99 39.4701 175.71 39.8001L176.25 40.0501C176.71 40.2501 176.88 40.4801 176.88 40.8301C176.88 41.2101 176.56 41.5301 175.93 41.5301C175.52 41.5301 175.13 41.3801 174.76 41.1601L174.71 41.9001C175.07 42.0801 175.54 42.1901 176.06 42.1901C177.2 42.1901 177.66 41.5001 177.66 40.6401C177.66 40.0301 177.28 39.6201 176.67 39.3701Z" fill="white"/>
<path d="M182.73 35.3008H181.09V42.1208H181.95V39.2708H182.53C183.98 39.2708 184.74 38.5708 184.74 37.2408C184.74 36.6408 184.55 36.1708 184.2 35.8408C183.84 35.5008 183.41 35.3108 182.73 35.3108V35.3008ZM182.41 38.5608H181.94V36.0008H182.43C183.31 36.0008 183.84 36.3708 183.84 37.3108C183.84 38.0708 183.46 38.5608 182.41 38.5608Z" fill="white"/>
<path d="M186.43 37.9203H186.41L186.38 37.1403H185.59C185.59 37.4903 185.63 37.8503 185.63 38.2103V42.1203H186.45V39.4803C186.45 38.4003 186.89 37.8503 187.53 37.8503C187.64 37.8503 187.74 37.8503 187.84 37.8803V37.0703C187.1 37.0703 186.68 37.3103 186.43 37.9203Z" fill="white"/>
<path d="M190.27 37.0703C188.95 37.0703 188.27 38.0603 188.27 39.6303C188.27 41.2003 188.96 42.1903 190.27 42.1903C191.58 42.1903 192.27 41.2003 192.27 39.6303C192.27 38.0603 191.59 37.0703 190.27 37.0703ZM190.27 41.5203C189.49 41.5203 189.13 40.8803 189.13 39.6303C189.13 38.3803 189.49 37.7303 190.27 37.7303C191.05 37.7303 191.41 38.3703 191.41 39.6303C191.41 40.8903 191.05 41.5203 190.27 41.5203Z" fill="white"/>
<path d="M197.63 37.0703C197.07 37.0703 196.69 37.3603 196.42 37.8503C196.16 37.3403 195.77 37.0703 195.25 37.0703C194.73 37.0703 194.28 37.3103 194.02 37.8803H194L193.97 37.1403H193.17C193.18 37.4903 193.21 37.8503 193.21 38.2103V42.1203H194.03V39.0403C194.03 38.1403 194.36 37.7703 194.97 37.7703C195.46 37.7703 195.73 38.0603 195.73 38.7003V42.1203H196.55V39.0403C196.55 38.1403 196.88 37.7703 197.49 37.7703C197.98 37.7703 198.25 38.0603 198.25 38.7003V42.1203H199.07V38.6603C199.07 37.5703 198.49 37.0703 197.62 37.0703H197.63Z" fill="white"/>
<path d="M202.03 37.0703C200.71 37.0703 200.03 38.0603 200.03 39.6303C200.03 41.2003 200.72 42.1903 202.03 42.1903C203.34 42.1903 204.03 41.2003 204.03 39.6303C204.03 38.0603 203.35 37.0703 202.03 37.0703ZM202.03 41.5203C201.25 41.5203 200.89 40.8803 200.89 39.6303C200.89 38.3803 201.25 37.7303 202.03 37.7303C202.81 37.7303 203.17 38.3703 203.17 39.6303C203.17 40.8903 202.81 41.5203 202.03 41.5203Z" fill="white"/>
<path d="M206.15 35.8809L205.33 36.1309V37.1509H204.54V37.8109H205.33V41.0109C205.33 41.8909 205.73 42.1909 206.48 42.1909C206.7 42.1909 206.98 42.1309 207.17 42.0609V41.3909C207.01 41.4609 206.87 41.5209 206.67 41.5209C206.29 41.5209 206.15 41.3009 206.15 40.7409V37.8009H207.17V37.1409H206.15V35.8809Z" fill="white"/>
<path d="M208.81 35.0898H207.91V36.0698H208.81V35.0898Z" fill="white"/>
<path d="M208.76 37.1406H207.94V42.1206H208.76V37.1406Z" fill="white"/>
<path d="M211.79 37.0703C210.47 37.0703 209.79 38.0603 209.79 39.6303C209.79 41.2003 210.48 42.1903 211.79 42.1903C213.1 42.1903 213.79 41.2003 213.79 39.6303C213.79 38.0603 213.11 37.0703 211.79 37.0703ZM211.79 41.5203C211.01 41.5203 210.65 40.8803 210.65 39.6303C210.65 38.3803 211.01 37.7303 211.79 37.7303C212.57 37.7303 212.93 38.3703 212.93 39.6303C212.93 40.8903 212.57 41.5203 211.79 41.5203Z" fill="white"/>
<path d="M216.8 37.0703C216.22 37.0703 215.81 37.3103 215.54 37.8803H215.52L215.49 37.1403H214.7C214.7 37.4903 214.74 37.8503 214.74 38.2103V42.1203H215.56V39.1203C215.56 38.2203 215.97 37.7803 216.62 37.7803C217.15 37.7803 217.44 38.1203 217.44 38.9103V42.1203H218.26V38.6603C218.26 37.5703 217.68 37.0703 216.81 37.0703H216.8Z" fill="white"/>
<path d="M221.94 42.1208H222.8V38.9608H224.88V38.2108H222.8V36.0508H224.99V35.3008H221.94V42.1208Z" fill="white"/>
<path d="M227.34 37.0703C226.02 37.0703 225.34 38.0603 225.34 39.6303C225.34 41.2003 226.03 42.1903 227.34 42.1903C228.65 42.1903 229.34 41.2003 229.34 39.6303C229.34 38.0603 228.65 37.0703 227.34 37.0703ZM227.34 41.5203C226.56 41.5203 226.2 40.8803 226.2 39.6303C226.2 38.3803 226.56 37.7303 227.34 37.7303C228.12 37.7303 228.48 38.3703 228.48 39.6303C228.48 40.8903 228.12 41.5203 227.34 41.5203Z" fill="white"/>
<path d="M233.81 37.1406H232.99V40.1406C232.99 41.0406 232.58 41.4906 231.94 41.4906C231.41 41.4906 231.12 41.1506 231.12 40.3506V37.1406H230.3V40.6006C230.3 41.6906 230.88 42.1906 231.75 42.1906C232.33 42.1906 232.75 41.9406 233.01 41.3806H233.03L233.06 42.1306H233.86C233.84 41.7806 233.82 41.4106 233.82 41.0506V37.1506L233.81 37.1406Z" fill="white"/>
<path d="M237.06 37.0703C236.48 37.0703 236.06 37.3103 235.8 37.8803H235.78L235.75 37.1403H234.96C234.96 37.4903 235 37.8503 235 38.2103V42.1203H235.82V39.1203C235.82 38.2203 236.23 37.7803 236.87 37.7803C237.4 37.7803 237.69 38.1203 237.69 38.9103V42.1203H238.51V38.6603C238.51 37.5703 237.92 37.0703 237.05 37.0703H237.06Z" fill="white"/>
<path d="M243.29 34.8008H242.46V37.8308H242.44C242.11 37.3008 241.74 37.0808 241.17 37.0808C240.15 37.0808 239.45 37.9208 239.45 39.6408C239.45 41.3608 240.14 42.2008 241.17 42.2008C241.89 42.2008 242.26 41.7908 242.48 41.4008H242.5L242.53 42.1308H243.32C243.31 41.8308 243.29 41.5108 243.29 41.2108V34.8108V34.8008ZM241.37 41.5208C240.62 41.5208 240.28 40.8808 240.28 39.6308C240.28 38.3808 240.62 37.7308 241.37 37.7308C242.12 37.7308 242.46 38.3708 242.46 39.6308C242.46 40.8908 242.12 41.5208 241.37 41.5208Z" fill="white"/>
<path d="M247.76 38.7603C247.76 38.0503 247.54 37.7503 247.33 37.5403C247.17 37.3803 246.74 37.0703 246 37.0703C245.51 37.0703 245 37.2103 244.6 37.4803L244.68 38.2503C244.97 37.9403 245.45 37.7303 245.96 37.7303C246.3 37.7303 246.62 37.8203 246.79 38.0403C246.95 38.2603 246.98 38.4703 246.98 38.8403V39.0703H246.5C244.79 39.0703 244.16 39.7803 244.16 40.7503C244.16 41.7203 244.78 42.1903 245.6 42.1903C246.36 42.1903 246.77 41.8303 246.99 41.4503H247.01L247.06 42.1203H247.8C247.78 41.9403 247.76 41.6503 247.76 41.3603V38.7603ZM246.98 40.3003C246.98 40.9803 246.53 41.5603 245.82 41.5603C245.25 41.5603 244.98 41.2203 244.98 40.6903C244.98 40.1103 245.44 39.6503 246.41 39.6503C246.63 39.6503 246.84 39.6503 246.99 39.6703V40.3003H246.98Z" fill="white"/>
<path d="M250.09 35.8809L249.27 36.1309V37.1509H248.48V37.8109H249.27V41.0109C249.27 41.8909 249.67 42.1909 250.42 42.1909C250.64 42.1909 250.91 42.1309 251.11 42.0609V41.3909C250.95 41.4609 250.81 41.5209 250.6 41.5209C250.23 41.5209 250.08 41.3009 250.08 40.7409V37.8009H251.11V37.1409H250.08V35.8809H250.09Z" fill="white"/>
<path d="M252.71 37.1406H251.89V42.1206H252.71V37.1406Z" fill="white"/>
<path d="M252.75 35.0898H251.85V36.0698H252.75V35.0898Z" fill="white"/>
<path d="M255.74 37.0703C254.42 37.0703 253.74 38.0603 253.74 39.6303C253.74 41.2003 254.42 42.1903 255.74 42.1903C257.06 42.1903 257.74 41.2003 257.74 39.6303C257.74 38.0603 257.06 37.0703 255.74 37.0703ZM255.74 41.5203C254.96 41.5203 254.59 40.8803 254.59 39.6303C254.59 38.3803 254.95 37.7303 255.74 37.7303C256.53 37.7303 256.88 38.3703 256.88 39.6303C256.88 40.8903 256.52 41.5203 255.74 41.5203Z" fill="white"/>
<path d="M260.75 37.0703C260.17 37.0703 259.75 37.3103 259.49 37.8803H259.47L259.44 37.1403H258.65C258.65 37.4903 258.69 37.8503 258.69 38.2103V42.1203H259.51V39.1203C259.51 38.2203 259.92 37.7803 260.56 37.7803C261.09 37.7803 261.38 38.1203 261.38 38.9103V42.1203H262.2V38.6603C262.2 37.5703 261.61 37.0703 260.74 37.0703H260.75Z" fill="white"/>
<path d="M179.22 14.6797H176.96V31.9797H179.22V14.6797Z" fill="white"/>
<path d="M173.71 20.5097H171.11V22.1797H173.71V31.9797H175.97V14.6797H173.71V20.5097Z" fill="white"/>
<path d="M169.37 18.9392V18.1292H172.22V16.4592H169.37V14.4492H166.99V16.4592H164.14V18.1292H166.99V18.9392C166.99 22.3892 165.75 24.3792 163.66 26.2392L165.02 27.3692C166.22 26.5092 167.7 24.9892 168.18 23.3792C168.65 24.9492 170.14 26.4992 171.34 27.3692L172.7 26.2392C170.61 24.3792 169.37 22.3892 169.37 18.9392Z" fill="white"/>
<path d="M218.21 19.2902C218.21 21.3002 220.02 22.6002 222.71 22.6002C225.4 22.6002 227.21 21.3102 227.21 19.2902C227.21 18.5802 226.98 17.9502 226.57 17.4502H229.05V15.7802H223.9V14.2402H221.49V15.7802H216.34V17.4502H218.86C218.45 17.9502 218.22 18.5702 218.22 19.2902H218.21ZM222.71 17.6602C223.9 17.6602 224.74 18.2902 224.74 19.2802C224.74 20.2702 223.9 20.9002 222.71 20.9002C221.52 20.9002 220.69 20.2702 220.69 19.2802C220.69 18.2902 221.53 17.6602 222.71 17.6602Z" fill="white"/>
<path d="M230.76 23.2109H214.62V24.8809H230.76V23.2109Z" fill="white"/>
<path d="M222.71 25.541C219.69 25.541 217.73 26.901 217.73 29.021C217.73 31.141 219.69 32.501 222.71 32.501C225.73 32.501 227.69 31.151 227.69 29.021C227.69 26.891 225.73 25.541 222.71 25.541ZM222.71 30.841C221.22 30.841 220.26 30.131 220.26 29.021C220.26 27.911 221.22 27.211 222.71 27.211C224.2 27.211 225.17 27.921 225.17 29.021C225.17 30.121 224.2 30.841 222.71 30.841Z" fill="white"/>
<path d="M189.2 21.6402C192.12 21.6402 194 20.1402 194 17.7702C194 15.4002 192.12 13.9102 189.2 13.9102C186.28 13.9102 184.4 15.4102 184.4 17.7702C184.4 20.1302 186.29 21.6402 189.2 21.6402ZM189.2 15.6302C190.61 15.6302 191.53 16.4602 191.53 17.7702C191.53 19.0802 190.61 19.9202 189.2 19.9202C187.79 19.9202 186.88 19.0802 186.88 17.7702C186.88 16.4602 187.8 15.6302 189.2 15.6302Z" fill="white"/>
<path d="M181.13 24.1798H185.23V26.0098H183.15V27.6798H192.25C192.39 27.6798 192.49 27.7898 192.49 27.9198V32.1498H194.9V27.1698C194.9 26.5298 194.38 26.0098 193.74 26.0098H193.18V24.1798H197.28V22.5098H181.14V24.1798H181.13ZM187.64 24.1798H190.76V26.0098H187.64V24.1798Z" fill="white"/>
<path d="M212.66 14.6797H210.23V26.5697H212.66V14.6797Z" fill="white"/>
<path d="M203.56 21.2709C204.96 23.8209 207.84 24.7809 207.84 24.7809L208.75 23.2509C205.02 21.8309 204.8 17.7509 204.79 17.0509H208.03V15.3809H199.09V17.0509H202.32C202.32 17.7509 202.09 21.8309 198.36 23.2509L199.27 24.7809C199.27 24.7809 202.15 23.8109 203.56 21.2709Z" fill="white"/>
<path d="M204.49 29.7905V25.8105H202.06V30.5405C202.06 31.1805 202.58 31.7005 203.22 31.7005H212.96V30.0305H204.73C204.6 30.0305 204.49 29.9205 204.49 29.7905Z" fill="white"/>
<path d="M239.36 24.8594C236.34 24.8594 234.39 26.3494 234.39 28.6794C234.39 31.0094 236.34 32.5094 239.36 32.5094C242.38 32.5094 244.34 31.0194 244.34 28.6794C244.34 26.3394 242.39 24.8594 239.36 24.8594ZM239.36 30.8394C237.82 30.8394 236.82 29.9994 236.82 28.6794C236.82 27.3594 237.82 26.5194 239.36 26.5194C240.9 26.5194 241.9 27.3594 241.9 28.6794C241.9 29.9994 240.9 30.8394 239.36 30.8394Z" fill="white"/>
<path d="M245.1 17.5005V16.3905C245.1 15.7505 244.58 15.2305 243.94 15.2305H233.69V16.9005H242.43C242.56 16.9005 242.67 17.0105 242.67 17.1405V17.8705C242.67 20.4005 241.93 22.2905 241.93 22.2905H239.08V19.0805H236.67V22.2905H231.29V23.9605H247.43V22.2905H244.28C244.28 22.2905 245.1 20.3505 245.1 17.5105V17.5005Z" fill="white"/>
<path d="M261.76 18.8097V14.6797H259.33V20.8297C257.81 21.9397 254.99 22.2897 252.17 22.2897H251.56C251.43 22.2897 251.32 22.1797 251.32 22.0497V17.2797C251.32 17.1397 251.43 17.0397 251.56 17.0397H256.59V15.3697H250.05C249.41 15.3697 248.89 15.8897 248.89 16.5297V22.8097C248.89 23.4497 249.41 23.9697 250.05 23.9697H251.33C253.02 23.9697 257.29 24.0397 259.33 22.6997V26.5797H261.76V20.4997H264.52V18.8297H261.76V18.8097Z" fill="white"/>
<path d="M253.73 29.7899V25.6699H251.33V30.5399C251.33 31.1799 251.85 31.6999 252.49 31.6999H262.2V30.0299H253.97C253.84 30.0299 253.73 29.9199 253.73 29.7899Z" fill="white"/>
<path d="M161.42 14.6797H159V26.5597H161.42V14.6797Z" fill="white"/>
<path d="M143.37 16.6307V15.8807C143.37 15.2407 142.85 14.7207 142.21 14.7207H131.92V16.3907H140.71C140.84 16.3907 140.95 16.5007 140.95 16.6307V17.2207C140.95 19.3807 140.32 21.0607 140.32 21.0607H129.6V22.7307H136.45V25.4507H132.01V27.1207H140.68C140.81 27.1207 140.92 27.2307 140.92 27.3607V32.0807H143.34V26.6107C143.34 25.9707 142.82 25.4507 142.18 25.4507H138.87V22.7307H145.74V21.0607H142.67C142.67 21.0607 143.38 19.1607 143.38 16.6407L143.37 16.6307Z" fill="white"/>
<path d="M152.99 29.7899V25.6699H150.57V30.5399C150.57 31.1799 151.09 31.6999 151.73 31.6999H161.73V30.0299H153.24C153.11 30.0299 153 29.9299 153 29.7899H152.99Z" fill="white"/>
<path d="M156.19 22.4099V16.0799C156.19 15.4399 155.67 14.9199 155.03 14.9199H148.65C148.01 14.9199 147.49 15.4399 147.49 16.0799V22.4099C147.49 23.0499 148.01 23.5699 148.65 23.5699H155.03C155.67 23.5699 156.19 23.0499 156.19 22.4099ZM153.77 21.6599C153.77 21.7899 153.66 21.8999 153.53 21.8999H150.15C150.02 21.8999 149.91 21.7899 149.91 21.6599V16.8299C149.91 16.6999 150.02 16.5899 150.15 16.5899H153.53C153.66 16.5899 153.77 16.6999 153.77 16.8299V21.6599Z" fill="white"/>
</g>
<defs>
<clipPath id="clip0_1090_3649">
<rect width="264.52" height="44.23" fill="white"/>
</clipPath>
</defs>
</svg>
