<svg width="117" height="40" viewBox="0 0 117 40" fill="none" xmlns="http://www.w3.org/2000/svg">
<g clip-path="url(#clip0_1090_3738)">
<path d="M4.15068 10.6498L2.73729 9.07227C0.973423 12.1093 0.0367757 15.5549 0.0206299 19.066H0.9948C0.92924 15.9605 2.0588 12.9481 4.15068 10.6498Z" fill="white"/>
<path d="M3.8992 26.1332C2.94707 25.2271 2.19644 24.131 1.69607 22.9162C1.19569 21.7014 0.95678 20.395 0.994852 19.0819V19.0645H0.0206819C-0.0246641 22.4359 0.61605 25.7815 1.90395 28.8982L3.8992 26.1332Z" fill="white"/>
<path d="M34.9067 16.5195L33.0973 18.4095C35.6037 18.4464 37.1435 20.4039 37.0897 22.9002H38.0638C38.0484 21.6685 37.7568 20.456 37.2104 19.3518C36.6641 18.2476 35.8769 17.2798 34.9067 16.5195Z" fill="white"/>
<path d="M38.0638 22.9004H37.0896C37.0421 24.9548 35.9565 26.6791 33.5483 27.9629L36.0904 31.5035C37.4539 28.8442 38.1321 25.8874 38.0638 22.9004Z" fill="white"/>
<path d="M5.16745 16.1902C5.09567 16.5789 5.05943 16.9732 5.0592 17.3684C5.0592 23.2527 9.39571 27.0096 14.8691 27.0096C25.2764 27.0096 28.3641 18.409 33.0247 18.409C33.0479 18.409 33.0716 18.409 33.0967 18.409L34.9061 16.519C32.6581 14.6477 29.3226 13.4746 25.2764 13.4746C17.0376 13.4746 12.6492 20.4346 8.90769 20.4346C7.28095 20.4346 6.03462 18.6271 6.03462 16.8721C6.03518 16.6946 6.04521 16.5173 6.06466 16.3409L5.16745 16.1902Z" fill="white"/>
<path d="M11.6175 7.55851C17.632 7.55851 21.8071 12.1598 27.1722 12.1598C33.6079 12.1598 37.1692 8.98914 38.0633 2.79289L37.0891 2.62977C36.8169 4.27102 35.7595 6.24414 33.8631 6.24414C32.0744 6.24414 30.1773 4.65477 27.4188 3.11914C24.6533 1.52977 21.4824 -0.00585938 17.5257 -0.00585938C11.162 -0.00585938 5.79252 3.78601 2.73926 9.06726L4.15264 10.6448C5.11632 9.64355 6.27705 8.85247 7.56177 8.32132C8.84649 7.79017 10.2274 7.53045 11.6175 7.55851Z" fill="white"/>
<path d="M17.9048 30.4603C13.2467 30.4603 7.35725 29.4397 3.89918 26.1328L1.90393 28.8997C4.77387 35.5778 10.8979 39.9928 20.0727 39.9928C26.1373 39.9928 32.8464 37.5634 36.0898 31.5009L33.5477 27.9603C30.5589 29.5516 25.5292 30.4603 17.9048 30.4603Z" fill="white"/>
<path d="M4.13004 10.6556L2.71665 9.07812C0.952838 12.1152 0.0162041 15.5608 0 19.0719H0.974161C0.908537 15.9663 2.03811 12.9539 4.13004 10.6556Z" fill="white"/>
<path d="M3.87857 26.1398C2.92652 25.2338 2.17593 24.1378 1.67556 22.9231C1.17519 21.7084 0.936229 20.4021 0.974213 19.0891V19.0723H5.20765e-05C-0.045294 22.4438 0.59541 25.7893 1.88331 28.906L3.87857 26.1398Z" fill="white"/>
<path d="M34.8861 16.5254L33.0767 18.4166C35.5831 18.4529 37.1229 20.4104 37.069 22.906H38.0432C38.0276 21.6744 37.7359 20.462 37.1895 19.3578C36.6432 18.2536 35.8561 17.2858 34.8861 16.5254Z" fill="white"/>
<path d="M38.0432 22.9062H37.069C37.0214 24.9606 35.9359 26.6863 33.5277 27.9688L36.0698 31.51C37.4332 28.8505 38.1115 25.8934 38.0432 22.9062Z" fill="white"/>
<path d="M5.14682 16.1954C5.07501 16.5842 5.03877 16.9788 5.03857 17.3741C5.03857 23.2585 9.37508 27.0141 14.8484 27.0141C25.2558 27.0141 28.3435 18.4135 33.0041 18.4135C33.0272 18.4135 33.051 18.4135 33.076 18.4135L34.8855 16.5223C32.6374 14.6516 29.302 13.4785 25.2558 13.4785C17.017 13.4785 12.6286 20.4379 8.88706 20.4379C7.26032 20.4379 6.01399 18.631 6.01399 16.8754C6.01454 16.6981 6.02457 16.521 6.04402 16.3448L5.14682 16.1954Z" fill="white"/>
<path d="M11.5969 7.565C17.612 7.565 21.7865 12.1663 27.1516 12.1663C33.5872 12.1663 37.1485 8.99562 38.0426 2.79875L37.0685 2.63626C36.7963 4.27689 35.7389 6.25 33.8425 6.25C32.0537 6.25 30.1567 4.66062 27.3981 3.125C24.6333 1.53562 21.4618 0 17.505 0C11.1414 0 5.77189 3.79187 2.71863 9.07312L4.13201 10.6506C5.09574 9.64954 6.25649 8.85857 7.54121 8.32752C8.82593 7.79648 10.2068 7.53686 11.5969 7.565Z" fill="white"/>
<path d="M17.8841 30.4662C13.226 30.4662 7.33662 29.4455 3.87855 26.1387L1.8833 28.9055C4.75324 35.5837 10.8773 39.9993 20.0521 39.9993C26.1167 39.9993 32.8257 37.5699 36.0692 31.5074L33.5271 27.9662C30.5383 29.5581 25.5085 30.4662 17.8841 30.4662Z" fill="white"/>
<path d="M115.576 24.5293H110.695V26.3799H115.576V24.5293Z" fill="white"/>
<path d="M117 10.4824H114.965V29.4118H117V10.4824Z" fill="white"/>
<path d="M113.165 20.7695H101.335V22.622H113.165V20.7695Z" fill="white"/>
<path d="M108.049 22.0039H106.015V29.2052H108.049V22.0039Z" fill="white"/>
<path d="M107.092 19.1237C109.737 19.1237 111.894 17.1687 111.894 14.8024C111.894 12.4362 109.737 10.4824 107.092 10.4824C104.447 10.4824 102.291 12.4374 102.291 14.8024C102.291 17.1674 104.447 19.1237 107.092 19.1237ZM107.092 12.2718C107.585 12.3079 108.057 12.4871 108.45 12.7873C108.843 13.0875 109.139 13.4956 109.303 13.9617C109.467 14.4278 109.491 14.9316 109.372 15.4111C109.254 15.8907 108.997 16.3253 108.635 16.6615C108.273 16.9977 107.82 17.221 107.333 17.304C106.845 17.3869 106.344 17.3259 105.891 17.1284C105.438 16.931 105.052 16.6057 104.781 16.1924C104.51 15.7791 104.366 15.2958 104.366 14.8018C104.377 14.4564 104.457 14.1167 104.6 13.8023C104.744 13.4879 104.948 13.2049 105.202 12.9697C105.455 12.7345 105.752 12.5517 106.077 12.432C106.401 12.3122 106.746 12.2577 107.092 12.2718Z" fill="white"/>
<path d="M100.099 17.7862H97.4536V29.4112H95.4189V10.4824H97.4536V15.9343H100.099V17.7862Z" fill="white"/>
<path d="M93.3856 10.8926H81.7894V12.7445H93.3856V10.8926Z" fill="white"/>
<path d="M91.5542 12.1289H89.5195V23.4458H91.5542V12.1289Z" fill="white"/>
<path d="M85.6554 12.1289H83.6207V23.4458H85.6554V12.1289Z" fill="white"/>
<path d="M93.5882 22.8281H81.5867V24.68H93.5882V22.8281Z" fill="white"/>
<path d="M54.0403 29.9107C48.0182 29.9107 44.6897 25.9063 44.6897 19.9813C44.6897 14.0282 48.2923 9.99443 54.1511 9.99443C56.1762 9.95468 58.1766 10.4442 59.9541 11.4144L59.321 15.5582C57.8301 14.5313 56.0716 13.9615 54.2612 13.9188C50.9877 13.9188 49.3935 16.3663 49.3935 19.9544C49.3935 23.5694 51.0434 26.1019 54.315 26.1019C55.2073 26.1305 56.0909 25.9189 56.8733 25.4894V22.0682H53.5723L53.0217 18.5351H60.9715V27.8813C58.9141 29.2309 56.5015 29.9374 54.0403 29.9107Z" fill="white"/>
<path d="M69.9923 29.7716C67.703 29.7873 65.439 29.2934 63.3646 28.326L64.0529 24.2635C65.89 25.3281 67.9555 25.9384 70.0768 26.0435C71.4232 26.0435 72.3611 25.4598 72.3611 24.3198C72.3611 23.2341 71.8093 22.7341 69.1408 21.7041C65.3449 20.2298 63.6975 18.9785 63.6975 15.8066C63.6975 12.1073 66.558 10.1316 70.1875 10.1316C72.1722 10.0761 74.1394 10.5165 75.9105 11.4129L75.1935 15.4185C73.7045 14.4838 71.9997 13.9474 70.2432 13.861C68.8136 13.861 68.126 14.4722 68.126 15.361C68.126 16.3335 68.6472 16.8066 71.0141 17.7235C75.1435 19.2547 76.7915 20.6998 76.7915 23.7598C76.7915 27.9335 73.7657 29.7685 69.9961 29.7685" fill="white"/>
</g>
<defs>
<clipPath id="clip0_1090_3738">
<rect width="117" height="40" fill="white"/>
</clipPath>
</defs>
</svg>
